/* XPM */
static char *result[] = {
/* columns rows colors chars-per-pixel */
"64 64 159 2 ",
"   c black",
".  c #010101",
"X  c #020202",
"o  c gray1",
"O  c #030005",
"+  c #040404",
"@  c #060606",
"#  c #040008",
"$  c #050209",
"%  c #07040B",
"&  c #0B070E",
"*  c #090909",
"=  c gray4",
"-  c #0C080F",
";  c #0C090F",
":  c #0C0C0C",
">  c gray5",
",  c #0E0E0E",
"<  c gray6",
"1  c #0F0C11",
"2  c #0F0C12",
"3  c #100D13",
"4  c #120F14",
"5  c #111111",
"6  c #131313",
"7  c #131116",
"8  c #151317",
"9  c gray8",
"0  c #161417",
"q  c #161616",
"w  c gray9",
"e  c #171418",
"r  c #171518",
"t  c #181719",
"y  c #181818",
"u  c #191919",
"i  c #19181A",
"p  c #1A181B",
"a  c gray10",
"s  c #1B1A1C",
"d  c gray11",
"f  c #1D1D1D",
"g  c #1D1C1F",
"h  c #1E1E1E",
"j  c gray12",
"k  c #1F1F20",
"l  c #201F20",
"z  c gray13",
"x  c #222222",
"c  c #232323",
"v  c #242324",
"b  c gray14",
"n  c #252425",
"m  c #252525",
"M  c #262527",
"N  c gray15",
"B  c #272627",
"V  c #272727",
"C  c #282828",
"Z  c gray16",
"A  c #2A292B",
"S  c #2A2A2A",
"D  c #2A2A2B",
"F  c gray17",
"G  c #2C2B2D",
"H  c #2C2C2C",
"J  c #2C2C2D",
"K  c #2D2D2D",
"L  c #2D2D2E",
"P  c gray18",
"I  c #2F2E2F",
"U  c #2F2F2F",
"Y  c #302F30",
"T  c gray19",
"R  c #313031",
"E  c #313131",
"W  c gray20",
"Q  c #343434",
"!  c #353535",
"~  c #353536",
"^  c gray21",
"/  c #373737",
"(  c #373738",
")  c gray22",
"_  c #383839",
"`  c #393939",
"'  c #3A3A3A",
"]  c #3B3A3B",
"[  c gray23",
"{  c #3C3C3C",
"}  c gray24",
"|  c #3D3D3E",
" . c #3E3E3E",
".. c #3F3E3F",
"X. c #3F3F3F",
"o. c gray25",
"O. c #414141",
"+. c gray26",
"@. c #434343",
"#. c #444444",
"$. c gray27",
"%. c #464646",
"&. c gray28",
"*. c #484848",
"=. c #494949",
"-. c gray29",
";. c #4B4B4B",
":. c #4C4C4C",
">. c gray30",
",. c #4E4E4E",
"<. c gray31",
"1. c #505050",
"2. c #515151",
"3. c gray32",
"4. c #535353",
"5. c gray33",
"6. c #555555",
"7. c #565656",
"8. c gray34",
"9. c #585858",
"0. c gray35",
"q. c #5A5A5A",
"w. c #5B5B5B",
"e. c gray36",
"r. c #5D5D5D",
"t. c gray37",
"y. c #5F5F5F",
"u. c #606060",
"i. c gray38",
"p. c #626262",
"a. c gray39",
"s. c #646464",
"d. c #656565",
"f. c gray40",
"g. c #676767",
"h. c #686868",
"j. c DimGray",
"k. c #6A6A6A",
"l. c gray42",
"z. c #6D6D6D",
"x. c gray43",
"c. c #6F6F6F",
"v. c gray44",
"b. c #717171",
"n. c #727272",
"m. c gray45",
"M. c #747474",
"N. c gray46",
"B. c #767676",
"V. c #777777",
"C. c gray47",
"Z. c #797979",
"A. c gray48",
"S. c #7B7B7B",
"D. c #7A787C",
"F. c #929292",
"G. c gray58",
"H. c #9B9B9B",
"J. c #A4A4A4",
/* pixels */
"# # # # # # # # # # # # # # # # # # # # # # # # # # # # # # # # # # # # # # # # # # # # # # # # # # # # # # # # # # # # # # # # ",
"# # # # # # # # # # # # # # # # # # # # # # # # # # # # # # # # # # # # # # # # # # # # # # # # # # # # # # # # # # # # # # # # ",
"# # # # # # # # # # # # # # # # # # # # # # # # # # # # # # # # # # # # # # # # # # # # # # # # # # # # # # # # # # # # # # # # ",
"# # # # # # # # # # # # # # # # # # # # # # # # # # # # # # # # # # # # # # # # # # # # # # # # # # # # # # # # # # # # # # # # ",
"# # # # # # # # # # # # # # # # # # # # # # D.# # # # # # # # # # # # # # # # # # # # # # # # # # # # # # # # # # # # # # # # # ",
"# # # # # # # # D.# # # # # # # # # # # # # # # # # # # # # # # # # # # # # # # # # # # # # # # # # # # # # # # # # # D.# # # # ",
"# # # # # # # # # # # # # # # # # # # # # # # # # # # # # # # # # # # # # # # # # # # # # # # # # # # # # # # # # # # # # # # # ",
"# # # # # # # # # # # # # # # # # # # # # # # # # # # # # # # # # # # # # # # # # # # # # # # # # # # # # # # # # # # # # # # # ",
"# # # # # # # # # # # # # # # # # # # # # # # # # # # # # # # # # # # # # # # # # # # # # # # # # # # # # # # # # # # # # # # # ",
"# # # # # # # # # # # # # # # # # # # # # # # # # # # # # # # # # # # # # # # # # # # # # # # # # # # # # # # # # # # # # # # # ",
"# # # # # # # # # # # # # # # # # # # # # # # # # # # # # # # # # # # # # # # # # # # # # # # # # # # # # # # # # # # # # # # # ",
"# # # # # # # # # # # # D.# # # # # # # # # # # # # # # # # # # # # # # # # # # # # # # # # # # # # # # # # # # # # # # # # # # ",
"# # # # # # # # # # # # # # # # # # # # # # # # # # # # # # # # # # # # # # # # # # # # # # # # # # # # # # # # # # # # # # # # ",
"# # # # # # # # # # # # # # # # # # # # # # # # # # # # # # # # # # # # # # # # # # # # # # # # # # # # # # # # # # # # # # # # ",
"# # # # # # # # # # # # # # # # # # # # # # # # # # # # # # # Y ~ ~ ~ ~ ~ 3 # # # # # # # # # # # # # # # # # # # # # # # # # # ",
"# # # # # # # # # # # # # # # # # # # # # e G G G G G G G G G O.{ ! ! ^ $.Y G g # # # # # # # # # # # # # # # # # # # # # # # # ",
"# # # # # # # # # # # # # # # # # # # # 8 I $.$.$.-.;.;.;.;.$.o.S * + 9 X.#.$.~ p # # # # # # # # # # # # # # # # # # # # # # # ",
"# # # # # # # # # # # # # # # # # # # - R %.=.&.&.9.e.e.e.e.$.P N f 5 N N +.$.$._ 2 2 2 2 2 2 2 2 # # # # # # # # # # # # # # # ",
"# # # # # # # # # # # # # # # # # # # ( $.0.V.e.e.e.e.e.e.e.$.P N N N N N +.$.$.$.$.$.$.$.$.$.$.$.# # # # # # # # # # # # # # # ",
"# # # # # # # # # # # # # # # # # # # ( 1.e.y.e.e.e.e.e.q.2.$.@.W N N C +.$.$.$.$.=.q.q.q.q.q.7.$.O.O.M # # # # # # # # # # # # ",
"# # # # # # # # # # # # # t l B ] ] ] u.f.e.e.e.e.e.e.0.3.<.:.&.O. . . .$.$.$.$.:.8.e.e.e.e.e.w.7.7.*...A D.# # # # # # # # # # ",
"# # # # # # # # # # # s s x z F 3.$.$.u.s.e.e.e.e.e.e.q.6.<.<.:.&.$.$.$.$.$.$.$.,.q.1.e.e.e.e.e.e.e.-.$.| D # # # # # # # # # # ",
"# # # # # # # # ; 0 0 N E C S O.e.,.&.<.5.5.6.e.e.e.e.e.q.5.5.5.2.,.,.,.,.,.,.,.5.9.$.e.e.e.e.e.e.e.-.6.4.' # # # # # # # # # # ",
"# # # # # # ; 1 i C P P O.^ @.e.e.e.-.$.$.$.*.9.e.e.e.e.e.e.e.e.e.e.e.e.e.e.e.e.w.8.4.a.r.e.e.e.e.9.=.l.d.' # # # # # # # # # # ",
"# # # # # # k N N K $.$.$.5.e.e.e.e.-.$.$.$.$.$.w.e.e.e.e.e.e.e.e.e.e.e.e.e.e.e.6.3.A.A.a.e.e.e.e.$.$.l.d.' # # # # # # # # # # ",
"# # # # # # k ` $.-.e.$.9.e.e.e.e.e.e.,.$.$.$.$.$.$.5.e.e.e.e.e.c.c.e.e.e.e.e.e.e.9.$.A.a.e.e.a.A.$.m.A.d.' # # # # # # # # # # ",
"# # # # # k m ` $.%.-.9.w.e.e.e.e.e.e.,.$.$.$.$.$.$.*.-.,.e.e.e.u.u.e.t.N.N.s.e.e.9.$.4.c.g.e.q.4.$.t.a.k.f.' # # # # # # # # # ",
"# # # # # v ^ o.$.$.$.<.<.8.e.e.e.e.3.=.$.$.$.$.$.$.$.$.&.<.<.q.e.8.9.x.5.5.h.f.a.j.$.$.a.p.s.h.$.j.t.e.p.u.@.~ & # # # # # # # ",
"# # # $ r n  .$.$.$.$.$.$.5.e.e.e.e.3.=.$.$.$.$.$.$.$.$.$.$.$.6.0.3.<.f.N N k.n.j.a.$.<.q.e.j.n.$.c.u.d.a.9.,.$.L 7 #     # #   ",
"# # D.% N K X.$.$.$.$.$.$.2.q.w.9.9.9.:.$.$.$.$.$.*.*.&.$.$.$.2.5.<.*.#.z m i.b.d.%.-.e.e.e.j.n.$.e.p.z.g.9.7.-.$.D 4 # # #   # ",
"# # # % N +.$.$.$.$.$.$.$.$.<.9.$.$.$.$.$.$.$.$.$.2.5.,.$.$.$.2.5.5.2.@.+ b N ` %.;.e.e.e.e.j.b.%.e.N.e.$.$.*.e.&.$.J X         ",
"# #   + N +.$.$.$.$.$.$.$.$.<.9.$.$.$.$.$.$.$.$.4.=.$.;.5.5.$.$.,.5.2.$.$.F N ` e.N.e.e.e.e.e.e.e.e.-.$.$.$.*.e.e.;.$.!         ",
"#   # + N +.$.$.$.$.$.0.0.,.&.*.$.$.$.$.$.$.&.3.*.%.>.&.T T H :.4.<.&.$.$.x.4.<.e.u.e.e.>.6.e.e.e.e.-./ H H E =.w.F.M.!         ",
"      + N E o.,.6.6.6.e.e.<.$.$.$.$.$.:.<.<.1.5.%./ / W N N N >.5.,.$.$.$.9.8.0.e.q.>.>.&.5.e.0.>.>.&.H 6 a F $.w.H.A.!         ",
"      + N N *.8.e.q.2.2.2.-.$.&.>.>.&.<.5.5.5.5.%.U N N b u N } =.-.$.$.$.$.7.e.9.,.) ) ) =.7.9.$.$.[ j , f F $.w.S.s.!         ",
"      + N N 2.e.q.4.$.} } } o.=.8.8.=.<.5.0.s.p.&./ C h a   N N [ $.$.$.$.:.9.p.r.O.N h m [ <.9.$.$.^ d y S ! $.w.;. .F         ",
"      + N N 2.e.6.#.O.c c m ! -.e.e.-.,.3.t.B.M.=.$.K @     N F { $.%.*.*.q.u.z.h.O.H = C X.2.0.=.1.&.` P ! %.=.w.;.F           ",
"      + N N 2.e.6.O.N     d ! -.e.e.-.$.$.$.$.$.$.$.! d     N o.$.$.=.5.5.w.n.l.6.$.$.N o.5.e.e.e.A.3.l.d.$.*.e.e.;.F           ",
"      + N 8.e.e.e.6.N   z ' <.e.e.e.e.e.3.$.$.$.N.5.$.#.X.N 4.*.$.$.$.%.5.5.' -.e.9.$.N o.5.e.e.e.r.e.<.2.e.e.e.J.6.X           ",
"      + N 9.e.e.e.6.N   ` @.<.e.e.e.e.e.3.$.$.$.3.3.2.>.#.o.*.%.$.$.$.#.W %.@.:.9.w.9.o.5.q.e.e.e.-.0.,.2.e.q.-.p.U             ",
"      + N X.:.<.<.-.N d X.$.<.e.e.e.e.e.3.$.$.$.$.2.5.3.>.$.$.$.$.X.! Q N W O.>.3.3.e.5.q.e.e.e.e.$.9.,.-.<.,.$.$.j             ",
"      X d m ^ [ [ ' ! ! +.;.6.e.e.e.e.e.3.$.$.$.$.:.,.,.>.$.$.$.X.E d f N N  .-.;.*.5.e.e.e.e.q.5.$.9.,.$.$.$.$.V.[             ",
"          j z z c H o.o.#.2.9.0.e.e.e.e.3.$.$.$.$.$.$.$.$.$.$.$.! d   o z m  .$.$.$.$.e.e.e.e.9.$.$.6.-.-.4.2. .G.:.            ",
"                9 N N N o.$.$.-.e.e.e.e.3.$.$.$.$.$.$.$.$.$.$.$.! d       c  .$.$.$.$.e.e.e.e.9.$.$.$.W q.A.m.                  ",
"                      N N N ! $.$.$.$.$.$.$.$.$.$.$.$.$.*.5.5.*.! d       c  .>.<.$.$.$.$.$.y.n.$.$.K N / '                     ",
"                      : : h Z P P P P P ' $.$.$.$.$.$.$.*.5.5.*.! d       c  .>.<.$.$.$.$.$.;.1.$.P C ) +.'                     ",
"                          , 9 9 9 9 9 z K Q Q Q #.$.r.r.%.;.5.*.! c f f f ` +.r.p.$.$.$.$.$.$.+.Q N r.%.Z x                     ",
"                                      9 a a d N ) +.q.w.$.$.g.>.} / / / / @.$.9.e.$.$.$.$.$.$.o.N a 5.^                         ",
"                                            @ j N `  .O.$.$.A.u.>.$.-.9.9.9.;.$.$.$.$.$.X. . .' N                               ",
"                                                x b m W @.$.B.Z.p.-.4.B.B.B.8.$.*.;.+.+.H b b b b                               ",
"                                                    d N P $.$.n.A.h.$.$.$.$.$.$.e.v.N N >                                       ",
"                                                    o w V Z $.=.-.*.$.$.$.$.$.) H U N + .                                       ",
"                                                      @ < < U U U U U U U U U x < < <                                           ",
"                                                            q q q q q q q q q :                           C.                    ",
"                                                                                                                                ",
"                                                                                                                                ",
"                                                                                                                                ",
"                                    O                                                                                           ",
"O           O     O O O O O   O O           O       C.                                                                          ",
"O O   O O O   O O O O O O O O O O O O O O O O             O         O           O O                                     # # #   ",
"O O O O O O O O O O O O O O O O O O O O O O O O O O   O O O O O O                   C.              O                   # #   # ",
"O O O O O O O O O O O O O O O O O O O O O O     O   O   O O   O O O O O   O                 O O O   O               # # # # # # ",
"O O O O O O O O O O O O O O O O O O O O O O O O O O O O O O O O O O O O O O O O O O O O O   O   O O     O O       O # # # # # # ",
"O O O O O O O O O O O O O O O O O O O O O O O O O O O O O O O O O O O O O O O O O O O O   O O O     O O O     O   O # # # # # # "
};
