/* XPM */
static char *result[] = {
/* columns rows colors chars-per-pixel */
"64 64 41 1 ",
"  c #020102",
". c #050109",
"X c #0A020D",
"o c #0C0313",
"O c #0D051A",
"+ c #110315",
"@ c #150419",
"# c #1A051D",
"$ c #160721",
"% c #1F0822",
"& c #210726",
"* c #210825",
"= c #25072A",
"- c #25092B",
"; c #29082F",
": c #2D0B33",
"> c #300B37",
", c #340C3B",
"< c #3A0F3F",
"1 c #3A0E41",
"2 c #3B1144",
"3 c #3E1248",
"4 c #410F47",
"5 c #44134D",
"6 c #48114E",
"7 c #471651",
"8 c #4B1655",
"9 c #4E1859",
"0 c #55165D",
"q c #53185E",
"w c #5A1762",
"e c #561960",
"r c #5B1964",
"t c #5F1A68",
"y c #631B6D",
"u c #671D71",
"i c #6B1E75",
"p c #6A696B",
"a c #727173",
"s c #79787A",
"d c #816C87",
/* pixels */
".......... ........... ...... ........ ..... ........ ....... ..",
"...... ........ ... ...... ..... ........ ...... ....... .......",
"............ ... .................. ............... .. .... ....",
". .. .... ........... .. ..... ...... ..... .. .............. ..",
"......................s............ .. .......... ....... .... .",
"... .. .s. ... ... ........X............. .... ...... .....s....",
" ......................X.X...X... ..............................",
".... ....... ........ ...o+XX X...... ...... ...... ... ..... ..",
".... ......... .......oOXeu*$ X........ ....... ......... ......",
" ....... .. .........XooXey$o..X.......... ...... .... ..... ...",
".. ... ...........X XoXo%etXX X.................................",
"............s ..  XXo-@>ie7 XX..............X ..... ...... .... ",
". .. .... ...... XXXX@o:e5: X..X....X.X...X XX X....... ........",
".................X XXX#:9:XXX X. X...X.XX..XX X......... .... ..",
"....... .......  XX  Xeu9: X.XXXX.XoOo ..X XXX X.X... .... .....",
".. ....... .....X XX-eeq:%XoXX  X..Xoo.X90005.X+%X............. ",
"...... ..... .....X.>ir5.ooOo.XXXpXX Xo#tuiue$---XX X.X........ ",
" .. ..... .........X>ie7X%*X.. X.X .X.:8988899uq.XXX...X........",
"..................Xo&585X+$.X XXX.##X,392:,,>se9205 .X....... ..",
"..... ..... .. ... oO.58%o..XXX  X%-:787%..Oo 388u0%XXXX.X......",
"... .. ......... X X..ru9-XX.X XXX.2iq3XX..X.X.:8888@pOXX.X.....",
"......... ......X.X.o%15999.X.XXX ,7r2-.X....X.%>:283,o. X.... .",
". ... .............X+&@&9trX XX .X79q-XX+oX...X X.:795%XXX......",
"............ ... XX..X.=797X X.XXX3qi>..**..X.XX...Xuy9@X ......",
"... ............XX.X.X.@:57 $%X. X573$X @+XXX ....X.258+.X.X....",
".......X.X...  .a.X..XX X7d**$XXX.73XXXXX X XXXXX.XX.:7+o+.X.. .",
".... X XX..X X. .  XX..X ru9-XOo.X53XX XXX.X X  ..oOX..X#-X... X",
".....XXX..ooX.XXX.X..X.XX>3972o %3:- X X X..XXXX.%#oX..Xo@..X.. ",
" ....X+X XoOX.X ...X XX XX%733XX*7%Xo:>>>;XXXX Xo%#..X.XX..  .. ",
"..s..X-#X  .   X.XXX XX ..XXX. XX..+:yiiir..  X ..  ..X .X...  .",
"....X @6r .pXX X.... X X..X  X X...o@,5eqer-  X X.X    X.X.     ",
"..    X9y  .+X  .X   X XX..  X XX.Xo+.*78eu<;<+X  .  .X .       ",
"     X <8 Xo-@X XX X XX  O@       o#-+ X7979ei:  X              ",
"      .9y5- +X X      X   X  o*o  XX+.X *:*79et8        s       ",
"       8r9<*X       X+    X-@o-@#<@  X     779uq       s s      ",
"       o$998        o-%   *9:   <i,   X     :9u9X X     s       ",
"       .X*qy553 X    +X X29u<   <i<  X      :7<7y*              ",
"          7r39q-:*  +*---9ee<   >u:        X:7%3i-X             ",
"        pX   0p977 X%9997ty     *9*      X  :9%7i:X             ",
"            .:<-9u777u3*%s:OXX X*8- X  X    :9%7i:  X X         ",
"             %* 7e737e<   XOX   -9*        X:7:7i-X+.           ",
"                                *9* X X X     7ei-@-X           ",
"                  $X   o*+X     *8>%     X X  7ti-X+ .          ",
"                X oX   o%+   X :<8:# X X      7ti-.             ",
"            s     X     X      598* .         7ei-              ",
"                X   X  XX  X   55%o      X %%X7ei;X  .          ",
"               X  X X        #:99X  X  X   %$ 2qi-              ",
"            X   X  X   XX    -8urOX      X X   7i-X             ",
"           .       X      %779u4-X       X .  y0:+              ",
"               oX   +<:><:<9eeq;  X X X    XX y0  X             ",
"              XOX   %8889979ut     X  X    +o y0                ",
"            . .. ;iuuiiuuuuu5* %*   X   X  .. y0  X             ",
"              X  -qwwqqqqqee;  %%   X       ;5u0X               ",
"                 X       o+    X  X    X   X5ii0  X  s          ",
"                   %*  X X X             X X4i,#X               ",
"               X   @%        X              ,q-o# X             ",
"                 . . . .                  .  .+%-X              ",
"                        .                      X. .             ",
"           ..  ..     .   a                 . X                 ",
".   .  . ..   .  . ..                   .                   ... ",
"  .  .   .  .. . .   ..       ..          s                 .. .",
".  . ..   ..     ..     .   ..                            ......",
".  ..  .. .  .. .  .. .  ..  ..  . ..   .  .  . .   .     .... .",
"  .   .  .  .  .  .  .  .  ..  .  . ..    .       .      .. ...."
};
