/* XPM */
static char *result[] = {
/* columns rows colors chars-per-pixel */
"64 64 88 1 ",
"  c #010001",
". c #040008",
"X c #0B040C",
"o c #0F0610",
"O c #110714",
"+ c #170719",
"@ c #13081B",
"# c #1A091D",
"$ c #160B22",
"% c #1B0B24",
"& c #1B0E2D",
"* c #1D0F30",
"= c #1E1133",
"- c #210A25",
"; c #250C29",
": c #2A0E2E",
"> c #2C0D32",
", c #350E3A",
"< c #390F3E",
"1 c #201237",
"2 c #2E1032",
"3 c #22133A",
"4 c #321137",
"5 c #35123A",
"6 c #39143E",
"7 c #321645",
"8 c #3D1545",
"9 c #411747",
"0 c #44164D",
"q c #45194B",
"w c #471750",
"e c #4E1655",
"r c #4C1A55",
"t c #4D1A58",
"y c #52175A",
"u c #521B5C",
"i c #58185F",
"p c #561D62",
"a c #5B1C65",
"s c #5C1E68",
"d c #641C6D",
"f c #671E70",
"g c #6B1F74",
"h c #5B2165",
"j c #5F206B",
"k c #612371",
"l c #6A2376",
"z c #6C257A",
"x c #71247D",
"c c #515051",
"v c #5A585C",
"b c #79787A",
"n c #782382",
"m c #742983",
"M c #7D2689",
"N c #7B2B8B",
"B c #7F2D90",
"V c #82278D",
"C c #81288E",
"Z c #852790",
"A c #832D93",
"S c #8A2995",
"D c #8D2B9A",
"F c #863097",
"G c #873098",
"H c #8C319D",
"J c #952EA2",
"K c #982FA5",
"L c #8D33A0",
"P c #9034A3",
"I c #9735A9",
"U c #9D33AD",
"Y c #9E37B1",
"T c #A032AE",
"R c #A333B1",
"E c #A438B6",
"W c #AC36BB",
"Q c #A738B9",
"! c #AA39BC",
"~ c #B036BF",
"^ c #B137C0",
"/ c #B439C4",
"( c #B839C7",
") c #B73CC8",
"_ c #BC3CCC",
"` c #BF3DD0",
"' c #C43ED5",
"] c #CC40DD",
/* pixels */
"................................................................",
"................................................................",
"................................................................",
"................................................................",
"......................b.........................................",
"........b...............ooooOX.............................b....",
".....................XXXoooOXXX.................................",
".....................oOOo-;OOOoX................................",
"...................XOo*=oW_r:oooX...............................",
"..................XXoo@%o~(5%oooXX..............................",
".................XooO+O#6~/oooooXO..............................",
"............b.....oo;r4d]EFooooooXX..oOoooooooX.................",
"................XXXo#5-uWNpoooooooXXXoooooooooXXXX..............",
"................XoOooX<pPuoooooooooX@oooooooooXOooX.............",
"................XoooooW'Ppooooooooo%3@oooooooooXoooo............",
"................XoooeTQRj6O*@oooooo@%OooJRRRZoo:8#ooXX..........",
"................Xooos]!Ao#-1@ooooooooo-7!]]]R6err#ooooo.........",
"................Xoood'QAO9qOoooooooooXiPPLHLPP'RooooooooX.......",
"................Xoo$wZLAo:>ooooooo65olNPzjdkksRIxKCoOooooX......",
"................Xoo&*oAL8;oooooooo9riGLG8oo&&ONHP]T8@o@ooo......",
"...... .........XoooooW'LpoOooooooox]YNoooooooojPPLL4&3@ooo.....",
"................Xooo%8zZLYIXoooooolF!ztoooooooo8hhmLmj$oooooo...",
"................Xooo-w:0P)^oooooooFPYroo--oooooooohFYA0+ooooo...",
"................XooooXOwPLFoooooooAE]dooq9oooooooooo')L:ooooo...",
"......XXXXX.....Xoooooo:pAAo68ooooAGM8XO::XooooooooonAP;ooooo...",
".....XooooX.....vXooooooOAPqq8@OooFNoooXooooooooooO@ouF;#:oooX..",
"....XoooooOXoX...XooooooOW'Pt@3$oXFNoooooooooooooo&3@Ooo4rOoX...",
"...Xoooooo%*oooXXoooooooOdMPFz$@9Njwooooooooooooo85%oXoo%2Ooo...",
"...Ooo;#oo&=XoooXOooooooXo8AAmoo0F9+:idddyXoooooo95oooooooooX.. ",
"..boOOr4ooooooooooooooooooooooooXoo:r_]]]WOooooooooooooooooX.. .",
"...oXo2DWooooXooooooooooooooooooooo#:fCEEQ~uooooooo..Xoooo.     ",
".. XooOK_ooO:#ooooooooooo@@ooooooo@#:OrFHE'lud:oooX  .oXoX      ",
". .OooOxGoo#r5ooooooooooo=1XoooXoo17r:ooBLPL^]poooX             ",
"    XooP`Apo:#ooooooooooo@@Oo-q;oo+%:Ooo0ttGIY^DooXX    b       ",
"    XooD/PzrooooooooO:+ooo;r:;q;6x,oooooooomGL]RooOX   b b      ",
"    Xoo*7PPHoooooooo;t4OooqPtooog'dOoooooooojL'YoooO    b       ",
"      o@%qT_FANoooooO:+XozP'lOXog]dooooooooosPgD(0XOXX          ",
"      ooooD!CIIttroo;tuuuLQ~doOod_dooooooooosP8Z'y@OXX.         ",
"      oooooooT]PPGoo0PPPP_(ooooorPwooooooooosP8S]p&Xooo         ",
"       XooooohlqT)AFP'V00aa1@ooorPwooooooooojP8S]i@Oooo         ",
"       .XXXoo48oSQNNAWlooo@=@ooorPwoooooooootNhP'r-4Ooo         ",
"          XoooooooooooooXOoooooorLwoooooooooooG!]r4r-oo         ",
"             oooo@1%ooo-q:oooooorPj8ooooooooooG!]y#;ooo         ",
"             .XooO&@ooo-9;oooootzLh5ooooooooooG!'yooooo         ",
"            b  oooooooooooooooXALPwOooooooOXooF!]yooooo         ",
"            XoXooooooooooooooooNA0%oooooooX96oF!]yooooo         ",
"           Xooooooooooooooooo2sUI%Ooooooooo85ozT'yooXXX         ",
"          XoooooooooooooooooowL'/3@oooooooooOXoS'yooXX          ",
"          XXooooooooooXooo0FAI'Mr+oooooooXOXXX~Td-oooX          ",
"          XOooo%+ooo>ddkjjlPEWRioooooooooOX%#X'ToooooX          ",
"          XXoo@3%ooX0PLPHGPP_(ooooooooooooo1&o'ToooooX          ",
"            ooo@oy'''''']]]]Vqo99oooooooooo+Oo'Roooo            ",
"            oooooqRRRRTTUTETpOo55oooooooooooiS'Roooo            ",
"            ooooooooooooo*=oooooooooooooooooV]'Roooo b          ",
"            ooooooo6qooooOOoooooooooo..oooooV]l5oooo            ",
"            XXooooo,6oooooooooooXXXXX .ooooofTw=,+oo            ",
"             Xooooooooooooooooooo     .ooooooo18r-oo            ",
"               ooooooooooooo.           oooooooO+ooo            ",
".     .  . ..  XXXXXXXXXXXcX            .X.ooooooXX.            ",
".  . .  . .  .. .  .              .     .  oooooo           ... ",
"  .  ...... . . ..  .  .   . ....         b       .         .. .",
".. ... .  .. ... ... .  .   .     .  .        .           ......",
" .. . . ...  . . . ..  . ... .. . ... . ... . .  .   .   .......",
".. .. ... . . . . .. .. . . . .. . . . . . .   .   ..  .  ......"
};
