/* XPM */
static char *result[] = {
/* columns rows colors chars-per-pixel */
"64 64 100 2 ",
"   c #020002",
".  c #0B0206",
"X  c #040008",
"o  c #150202",
"O  c #1B0202",
"+  c #240404",
"@  c #2F0806",
"#  c #350702",
"$  c #340805",
"%  c #3C0A06",
"&  c #291006",
"*  c #361706",
"=  c #371806",
"-  c #381905",
";  c #420C05",
":  c #4C0E02",
">  c #440D08",
",  c #4A0E08",
"<  c #4D1304",
"1  c #541206",
"2  c #5B1307",
"3  c #561802",
"4  c #641606",
"5  c #681706",
"6  c #671D00",
"7  c #6B1A04",
"8  c #771B04",
"9  c #7C1D03",
"0  c #5F2202",
"q  c #602302",
"w  c #6E2002",
"e  c #752302",
"r  c #7E2605",
"t  c #782901",
"y  c #663203",
"u  c #6C3602",
"i  c #743B01",
"p  c #7B3D02",
"a  c #7A787C",
"s  c #831F02",
"d  c #862003",
"f  c #8B2102",
"g  c #872B05",
"h  c #922301",
"j  c #9B2600",
"k  c #932A01",
"l  c #9E2900",
"z  c #863802",
"x  c #8D3D01",
"c  c #A52C00",
"v  c #A92F00",
"b  c #A73101",
"n  c #AD3100",
"m  c #AD3E01",
"M  c #B33400",
"N  c #B83700",
"B  c #B53900",
"V  c #BB3B00",
"C  c #C43E00",
"Z  c #C83F00",
"A  c #834301",
"S  c #8B4401",
"D  c #934301",
"F  c #944C02",
"G  c #9C5001",
"H  c #B34201",
"J  c #BA4200",
"K  c #B65002",
"L  c #BD5401",
"P  c #C44500",
"I  c #CC4200",
"U  c #CC4A00",
"Y  c #D34500",
"T  c #D84700",
"R  c #D44C00",
"E  c #DB4900",
"W  c #C45201",
"Q  c #CE5A00",
"!  c #D55300",
"~  c #DD5200",
"^  c #D75800",
"/  c #DD5B00",
"(  c #E15500",
")  c #E35B00",
"_  c #DC6000",
"`  c #D67000",
"'  c #DC7300",
"]  c #E66200",
"[  c #E86400",
"{  c #E46900",
"}  c #EC6B00",
"|  c #E17700",
" . c #ED7500",
".. c #E47900",
"X. c #EC7C00",
"o. c #F27500",
"O. c #F57A00",
"+. c #F97E00",
"@. c #F58100",
"#. c #FE8600",
/* pixels */
"X X X X X X X X X X X X X X X X X X X X X X X X X . . . X . . . . . X . . . . X X X X X X X X X X X X X X X X X X X X X X X X X ",
"X X X X X X X X X X X X X X X X X X X X X X X X & y i i i u i i i i i u i i i - X X X X X X X X X X X X X X X X X X X X X X X X ",
"X X X X X X X X X X X X X X X X X X X . X & y i S ' X.@.@.@.@.@.@.@.@.@.@.@.@.F i u 0 @ X X X X X X X X X X X X X X X X X X X X ",
"X X X X X X X X X X X X X X X X X X & y i S ` X.@.@.#.#.#.#.#.#.#.#.@.#.@.#.@.@.X...Q x q $ X X X X X X X X X X X X X X X X X X ",
"X X X X X X X X X X X X X X X X + 3 p ` #.#.#.#.#.#.#.#.#.#.#.#.#.#.#.#.@.#.#.#.#.#.+. .Q S u - X X X X X X X X X X X X X X X X ",
"X X X X X X X X a X X X X X + 3 u G ^ @.#.#.#.#.#.#.#.#.#.#.#.#.#.#.#.#.#.#.#.#.#.+.+.+.O. .| F 0 @ X X X X X X X X X a X X X X ",
"X X X X X X X X X X X X X + w V L @.#.#.#.#.#.#.#.#.#.#.#.#.#.#.#.#.#.#.#.#.@.` ) ( ) ) ( ) O. .Q t ; O X X X X X X X X X X X X ",
"X X X X X X X X X X X + 3 e V R @.#.#.#.#.#.#.#.#.#.#.#.#.#.#.#.#.#.#.#.+.[ / ! E E E E E E ) o. .L k 6 $ X X X X X X X X X X X ",
"X X X X X X X X X X + w J U E ) #.#.#.#.#.#.#.#.#.#.#.#.#.#.#.#.#.#.#.#.@.[ E E E E E E E E E ) @. .W J z - X X X X X X X X X X ",
"X X X X X X X X X + w V T E ) O.#.#.#.#.#.#.#.#.#.#.#.#.#.#.#.#.#.#.o.@.#.o.) E E E E E E E E ( O.#.O.[ ' F - X X X X X X X X X ",
"X X X X X X X X + w V E E ) O.#.#.#.#.#.#.#.#.#.#.#.#.#.#.#.#.#.#.#.@.#.#.} ) ~ E E E E E E E ( @.#.#.#.#...F - X X X X X X X X ",
"X X X X X X X + w J E E ) o.#.#.#.#.#.#.#.#.#.#.#.#.#.#.#.#.#.#.#.#.#.#.#.@.O.{ ) ( ) ( E E E ( +.#.@.#.#.#...F * X X X X X X X ",
"X X X X X X + w V T E ) O.#.#.#.#.#.#.#.#.#.#.#.#.#.#.#.#.#.#.#.#.#.#.#.#.#.#.#.+.+.+.+.] ( E ( o.O.} +.#.#.#...F = X X X X X X ",
"X X X X X X 3 V E E ( O.#.#.#.#.#.#.#.#.#.#.#.#.#.#.#.#.#.#.#.#.#.#.#.#.#.#.#.#.#.#.#.#.#.O.[ ( ) ( ( O.#.#.#.#...F = X X X X X ",
"X X X X X + e I T E ( +.#.#.#.#.#.#.#.#.#.#.#.#.#.#.#.#.#.#.#.#.#.#.#.#.#.#.#.#.#.#.#.#.#.#.@.o.) E ( o.#.#.#.#.#.| i X X X X X ",
"X X X X + 7 V I N U ) @.#.#.#.#.#.#.#.#.#.#.#.#.#.#.#.#.#.#.#.#.#.#.#.#.#.#.#.#.#.#.#.#.#.#.#.#.[ E E ) @.#.#.#.#.@.G * X X X X ",
"X X X X < V Y B M ! O.#.#.#.#.#.#.#.#.#.#.#.#.#.#.#.#.#.#.#.#.#.#.#.#.#.#.#.#.#.#.@.#.#.#.#.#.#.o.( E ) +.#.#.#.#.#.' i . X X X ",
"X X X + t P Y N I ) +.#.#.#.#.#.#.#.#.#.#.#.#.#.#.#.#.#.#.#.#.#.#.#.#.#.#.#.#.#.#. .| #.#.#.#.#.} ( ( O.#.#.#.#.#.@.{ D - X X X ",
"X X X < V E E Y ~ o.#.#.#.#.#.#.#.#.#.#.#.#.#.#.#.#.#.#.#.#.#.#.#.#.#.#.#.#.#.#.#.@.#.#.#.#.#.#.+.) ~ o.#.#.#.#.#.#.@.| i . X X ",
"X X + e I E E E ) +.#.#.#.#.#.#.#.#.#.#.#.#.#.#.#.#.#.#.#.#.#.#.#.#.#.#.#.#.#.#.#.#.#.#.#.#.#.#.#.) E ) +.+.#.#.} o.#.@.G - X X ",
"X X , B Y E E ~ O.#.#.#.#.#.#.#.#.#.#.#.#.#.#.#.#.#.@.#.#.#.#.#.#.#.#.#.#.#.#.#.#.#.#.#.#.#.#.#.+.) E ) o.} o.O.[ [ O.#...i X X ",
"X X % l Y E E ~ +.#.#.#.#.#.#.#.#.#.#.#.#.#.#.#.O.[ ) @.#.#.#.#.#.#.#.#.#.#.#.#.#.#.#.#.#.#.#.#.+.[ E ( o.) ( [ O.O.} +.O.G * X ",
"X o < j I E E ( +.#.#.#.#.@.#.#.#.#.#.#.#.#.#.| ] E E  .@.#.#.#.@.#.#.#.#.#.#.#.#.#.#.#.#.#.#.#.#.O.) ) O.) ( o.#.#.#.#.#...p . ",
"X % h n Y E E ( +.#.@.O.[ ) O.#.#.#.#.+.@.O.] ] o.] E U / } +.#.' @.#.#.#.#.#.#.#.#.#.#.#.#.#.#.#.#.#.+.+.) ( o.O.} @.#.@.@.A . ",
". < B I T E E ) +.#.} ) ) E ) +.#.#.] ( ) ( ( o.#.O.) ) O.+.#.@.L H H W X.#.#.#.#.#.#.#.#.#.#.#.o.O.#.#.+.) ~ U ^ O.#.#.} X.A . ",
"o 1 k B T E ~ O.#.#.#.@.+.) E ) O.O.( E E E E ) +.#.@.#.#.#.#.@.! m n R O.#.#.#.#.#.#.#.#.#.#.#.O.o.@.#.#.}  .! P  .#.#.+.O.G - ",
"$ 9 d P E E ) +.#.+.#.#.#.O.) E ( ( E E E E T ( o.#.#.#.#.#.#.#.) T Y ~ #.#.#.#.#.#.#.#.#.#.#.#.+.+.#.@.+.+.#.) Y ) O.O.[ +...i ",
"# d l I E E o.#.+.} +.#.#.O.) E E E E E E E E ( } O.#.#.#.#.#.O.) E E ~ @.#.#.#.#.#.#.#.#.#.#.#.o.+.O./ / +.@.~ N I ~ ( ( +.X.p ",
"+ 5 l I E E ) O.[ ( o.+.[ ( E E E E E E E ( ) O.O.o.+.#.#.#.O.] ~ E E !  .@.@.#.#.#.#.#.#.#.#.#.+. .K g m  .@./ v v Y T ( o._ t ",
"# s c I E E ~ o.) E ( ( E ~ E T E R Y T E o.O.+.O.O.#.#.#.+.] E E E E V J ! ) O.#.#.#.#.#.#.#.#.@.W r r b ~ o.~ N v Z Y ( o.^ w ",
"# f c Z E E E ( E ( E E ( } ( T T V N Y E ( ) ( ) ) O.#.#.[ E E E R { R N Y E ) #.#.#.#.#.#.#.#.@.L b C Y E ( E I v c M R o.! w ",
"# f l n Y E E E ) o.( E E ( Y N Y Y Y T E T Y Y Y T ( O.o.~ Y Y I V H I I Y Y ~ O.#.#.#.#.#.#.#.@.) T R E E E E T N v n Y ( U w ",
"; s j c Z E E ( O.+.) E E Z M c Z E E E T V v v b M I ~ ! N v c b V c c v M M V ^ +.#.#.#.#.#.#.#.@.[ E E E E T Y I Z Z Y T I 7 ",
"# s j c Z E E ( o.O.( E E Z v c Y E E E E Z M v M C V J ! N c j d v v c v Z Y I P  .#.#.#.#.#.#.#.#.+.) Y T E T V v v v n I P w ",
"+ 2 h j M Z Z E ( ( E E E C c c Z E E E E E T Y Y T E  .o./ Y M l C C M I T Y Y Y ^ O.#.#.#.#.#.#.#.@.) C Y E E Z v j j l c l 1 ",
"o : f j j v C Z E E E E Z Z n j n Y E E E E E E E E E ) O.+.( T V I C I T T N M P V ! o.@.#.#.#.#.#.@.) T T E Y M l j j j j f : ",
"  + 2 h j j c Z E E E E C v C C n Z E E E E E E E E E E ) o.[ E T T T T Y T Y M v l n R / O.+.+.#.#.+.) E E E T v j j j j j h : ",
"  o : s h j c Z E E E E Z C Z Z T T E E E E E E E E E E E ( } ( E T Y M n I Y C n l v Z C R E ( o.@.O.) E E T I v j j j h h s ; ",
"  o ; 2 5 f c Z E E E E E E E E E E E E E E E E E E E E E E ( E E T T M l c v v V v v C I V N n H ! ! U Y Y Y M c j l h 5 4 : O ",
"  o % > 2 f j N Z Z Z E E E E E E E E E E E E E E E E E E E E E E E T I M v v l l j j n I T Z C c c v v v n C v j j s 5 2 s :   ",
"  o % > 1 4 f l c v n Z E E E E E E E E E E E E E E E E E E E E E E E E Y Y Z M s j c n Z E E Z n v v c l h l h s h 5 , 1 s :   ",
"  o % 1 9 5 s j j j c Z E E E E E E E E E E E E E E E E E Z E E E E E E E E E Z n n Z Y E E E E Y Y I C c 8 4 5 5 5 , > 1 9 :   ",
"    O : 9 2 4 f j j j v Z E E Z E E E E E E E E E E E E T C Z E E E E E E E E E Y Y E E E E E E E E Y M l f 5 d h s 4 > ; % O   ",
"    o % 1 , 2 f j j j j M Z Z C Z E E E E E E Z E E T Z C Z E E E E E E E E E E E E E E E E E E E I n c v h 7 d j h 4 > ; O     ",
"      O % > 1 s j j j j j c c c n Z Z Z C Z Z N Z Z M v Z E T Y Y Y E E E E E E E E E E E E E E Y n c v C c 4 2 f f 2 ; % O     ",
"        O % > 2 f j j j j j j j j v n c c c c c c c c c Z Y Z M v n Z T T E Y T E E E E E E E Z M l c C I c 2 , 2 s 2 ; + .     ",
"          O > > 2 s h j j j j j j j j j j j j j j j j c v v c l j l v C N C M Z E E E E E E Z M c l v C M h 4 > , 1 , % O       ",
"          o % > , 1 5 s j j j j j j j j j j j j j j j j j j j j j j j c c c c v Z Y E E E Z N c c n C M c h 2 > > > ; +         ",
"            O # > > , 2 f h j j j j j j j j j j j h h h h h j j j j j j j j j j c n Z Y I v l c V Z Z v j f 2 > > > % O         ",
"              + % > > > 1 4 d h j l j j h h h h s 5 2 2 2 4 s j j j j j j j j j j l c v v l j l c v v c f 5 , > > % +           ",
"                O % > ; > , 1 4 s h h f 5 2 2 1 2 , > > > , 4 s h j j j j j j j j j j j l j l j j j j s 5 , > > ; +             ",
"                  O % ; > > > > 1 2 2 1 , > > > > > > > > > , 1 4 s h h h j j j j j j j h h f h h h h 5 , > > ; % O             ",
"                    O % > > > > > > > > > > > > > > > > > > > > , 1 2 2 4 s h h h h h s 7 2 2 2 2 2 1 , > > ; % +               ",
"                      O % > > > > > > > > > > > > > > > > > > > > > > > > 1 2 2 2 2 2 2 , > > > > > > > > > % + .               ",
"                      o $ > > > > > > > > > > > > > > > > > > > > > > > > > > > > > > > > > > > > > > > > % + .                 ",
"                        O % > > > > > > > > > > > > > > > > > > > > > > > > > > > > > > > > > > > > > > % +                     ",
"                          O % ; > > > > > > > > > > > > > > > > > > > > > > > > > > > > > > > > > > % % +                       ",
"                            O $ % ; > > > > > > > > > > > > > > > > > > > > > > > > > > > > > > ; % + O .                       ",
"                    X     X   o + # % ; > > > > > > > > > > > > > > > > > > > > > > > > > > > % % +                             ",
"  X     X     X   X   X X   X   X o O $ % > > > > > > > > > > > > > > > > > > > > > > > % % % + O                       X X X   ",
"X   X   X   X   X     X   X   X     . o + $ % > > > > > > > > > > > > > > > > % % % % % + O O                           X X   X ",
"  X   X   X   X   X X   X   X   X   X   X o + % % % % > % % % % % % % % % % % + O O O o       X     X               X X X X X X ",
"X   X   .   X   X     X   X   X   X   X       O o O O O O O O O O O O O O o O . X   X           X       X           X X X X X X ",
"  X   X   X   X   X X   X   X   X   X   X X X   X   X X   X   X X X     X X X X   X       X X       X             X X X X X X X "
};
