/* XPM */
static char *result[] = {
/* columns rows colors chars-per-pixel */
"64 64 109 2 ",
"   c #000001",
".  c #0C0101",
"X  c #040008",
"o  c #0A0108",
"O  c #140101",
"+  c #1C0301",
"@  c #130308",
"#  c #1C0708",
"$  c #1C0808",
"%  c #240403",
"&  c #2B0603",
"*  c #2C0A07",
"=  c #240508",
"-  c #260D08",
";  c #310704",
":  c #350804",
">  c #3A0A05",
",  c #2C1107",
"<  c #331007",
"1  c #3B1907",
"2  c #430C05",
"3  c #4D0F04",
"4  c #440D08",
"5  c #4A0F08",
"6  c #451007",
"7  c #4E1006",
"8  c #431B07",
"9  c #4E1806",
"0  c #4E1008",
"q  c #521204",
"w  c #5C1305",
"e  c #5C1806",
"r  c #631605",
"t  c #691704",
"y  c #651E03",
"u  c #6B1904",
"i  c #731B04",
"p  c #791D04",
"a  c #522507",
"s  c #5A2706",
"d  c #552800",
"f  c #5B2B07",
"g  c #6E2005",
"h  c #622F06",
"j  c #702A05",
"k  c #623006",
"l  c #683100",
"z  c #743405",
"x  c #79787A",
"c  c #842104",
"v  c #8D2402",
"b  c #8A2C04",
"n  c #922502",
"m  c #9A2A02",
"M  c #9E3403",
"N  c #983A04",
"B  c #A22D01",
"V  c #A92F00",
"C  c #A53400",
"Z  c #AA3201",
"A  c #AE3B02",
"S  c #B23500",
"D  c #B53A00",
"F  c #BC3A00",
"G  c #C43E00",
"H  c #C83F00",
"J  c #814105",
"K  c #8F4405",
"L  c #9E4603",
"P  c #944A05",
"I  c #9E5104",
"U  c #B94800",
"Y  c #A45304",
"T  c #AD5903",
"R  c #BC5502",
"E  c #B35B02",
"W  c #BF5E02",
"Q  c #BD6303",
"!  c #C54300",
"~  c #CC4300",
"^  c #CB4B00",
"/  c #D34600",
"(  c #D84700",
")  c #D44B00",
"_  c #DA4A00",
"`  c #C55A02",
"'  c #D45300",
"]  c #DC5400",
"[  c #D45901",
"{  c #DB5C00",
"}  c #E15600",
"|  c #E35D00",
" . c #D46701",
".. c #DF6200",
"X. c #D46D02",
"o. c #DA7101",
"O. c #E66700",
"+. c #E96500",
"@. c #E46A00",
"#. c #EC6C00",
"$. c #E77301",
"%. c #EE7400",
"&. c #E47801",
"*. c #EE7C01",
"=. c #F17400",
"-. c #F57B00",
";. c #F97E00",
":. c #F58100",
">. c #FE8500",
/* pixels */
"X X X X X X X X X X X X X X X X X X X X X X X X X X X X X X X X X X X X X X X X X X X X X X X X X X X X X X X X X X X X X X X X ",
"X X X X X X X X X X X X X X X X X X X X X X X X X X X X X X X X X X X X X X X X X X X X X X X X X X X X X X X X X X X X X X X X ",
"X X X X X X X X X X X X X X X X X X X X X X X X X X X X X X X X X X X X X X X X X X X X X X X X X X X X X X X X X X X X X X X X ",
"X X X X X X X X X X X X X X X X X X X X X X X X X X X X X X X X X X X X X X X X X X X X X X X X X X X X X X X X X X X X X X X X ",
"X X X X X X X X X X X X X X X X X X X X X X x X X X X X X X X X X X X X X X X X X X X X X X X X X X X X X X X X X X X X X X X X ",
"X X X X X X X X x X X X X X X X X X X X X X X X X X X X X X X X X X X X X X X X X X X X X X X X X X X X X X X X X X X x X X X X ",
"X X X X X X X X X X X X X X X X X X X X X X X X X X X X X X X X X X X X X X X X X X X X X X X X X X X X X X X X X X X X X X X X ",
"X X X X X X X X X X X X X X X X X X X X X X X X X X X X X X X X X X X X X X X X X X X X X X X X X X X X X X X X X X X X X X X X ",
"X X X X X X X X X X X X X X X X X X X X X X X X X X X X X X X X X X X X X X X X X X X X X X X X X X X X X X X X X X X X X X X X ",
"X X X X X X X X X X X X X X X X X X X X X X X X X X X X X X X X X X X X X X X X X X X X X X X X X X X X X X X X X X X X X X X X ",
"X X X X X X X X X X X X X X X X X X X X X X X X X X X X X X X X X X X X X X X X X X X X X X X X X X X X X X X X X X X X X X X X ",
"X X X X X X X X X X X X x X X X X X X X X X X X X X X X X X X X X X X X X X X X X X X X X X X X X X X X X X X X X X X X X X X X ",
"X X X X X X X X X X X X X X X X X X X X X X X X X X X X X X X X X X X X X X X X X X X X X X X X X X X X X X X X X X X X X X X X ",
"X X X X X X X X X X X X X X X X X X X X X X X X X X X X X X X X X X X X X X X X X X X X X X X X X X X X X X X X X X X X X X X X ",
"X X X X X X X X X X X X X X X X X X X X X X X X X X X X X X X X X X X X X X X X X X X X X X X X X X X X X X X X X X X X X X X X ",
"X X X X X X X X X X X X X X X X X X X X X X X X X X X X X X X X X X X X X X X X X X X X X X X X X X X X X X X X X X X X X X X X ",
"X X X X X X X X X X X X X X X X X X X X X X X X X X X X X X X X X x X X X X X X X X X X X X X X X X X X X X X X X X X X X X X X ",
"X X X X X X X X X X X X X X X X X X X X X X X X X X X X X X X X X X X X X X X X X X X X X X X X X X X X X X X X X X X X X X X X ",
"X X X X X X X X X X X X X X X X X X X X X X X X X X X X X X X X X X X X X X X X X X X X X x X X X X X X X X X X X X X X X X X X ",
"X X X X X X X X X X X X X X X X X X X X X X X X X X X X X X X X X X X X X X X X X X X X X X X X X X X X X X X X X X X X X X X X ",
"X X X X X X X X X X X X X X X X X X X X X X X X X X o # , 8 f k k k h a 1 - @ o X X X X X X X X X X X X X x X X X X X X X X X X ",
"X X X X X X X X X X X X X X X X X X X X X X X X o @ < f J I E Q Q Q Q T P z a - o o X X X X X X X X X X X X X X X X X X X X X X ",
"X X X X X X X X X X X X X X X X X X X X X X X o = 9 z T X.:.:.:.:.:.-.&. .` L j 8 $ X X X X X X X X X X X X X X X X X X X X X X ",
"X X X X X X X X X X X X X X X X X X X X X X o * s N  .o.:.:.>.>.>.>.-.#.| { [ R K s - o X X X X X X X X X X X X X X X X X X X X ",
"X X X X X X X X X X X X X X X X X X X X X o ; g N [ %.>.>.>.>.>.>.>.-.#.| } | O. .Y h - X X X X X X X X X X X X X X X X X X X X ",
"X X X X X X X X X X X X X X X X x X X X X # e M [ =.>.>.>.>.>.>.>.>.>.:.=.#.#.#.=.o.Y f $ X X X X X X X X X X X X X X X X X X X ",
"X X X X X X X X X X X X X X X X X X X X @ 6 b ! @.:.>.>.>.>.>.>.>.>.>.>.;.;.=.#.=.-.X.P 1 o X X X X X X X X X X X X X X X X X X ",
"X X X X X X X X X X X X X X X X X X X X = g A [ =.>.>.>.>.>.>.>.>.>.>.>.>.>.>.#.=.;.*.E k $ X X X X X X X X X X X X X X X X X X ",
"X X X X X X X X   X X X X X X X X X X X > b ^ O.;.>.>.>.>.;.;.>.>.>.>.>.>.>.>.=.#.=.-.X.K 1 X X X   X   X X X X X X X   X X X X ",
"X X x X X X X X X     X       X X X X X 9 C ' #.-.;.;.;.-.=.=.-.-.-.:.>.>.>.>.=.=.#.=.$.E d X   X X     X X X X X X X X X X   X ",
"X X X X X   X   X     x X X   X X X X   e C [ #.=.#.#.+.+.#.=.-.%.@.%.>.>.>.>.;.%.@.@.$.W l X   X X X       X X X X X           ",
"X X         X   X                 X     t D ] #.=.+.| ] } +.-.-.#.{ @.-.>.>.>.%.@...{ { ` z X X     X     X X   X               ",
"X   X     X         X X     X   X       y Z ] | | ] ) ( _ | #.#.{ ) [ O.-.>.>.$.[ ) ^ ^ U j X X                                 ",
"                              X         t C ~ ] } ~ ~ / ) ^ ' [ ^ ! ! ' #.-.:.%.| ) H F C y                     x               ",
"                    X   X               3 v D ) _ ~ H ( ( / _ ] ^ ! H ! [ $.-.=.O.~ F B v q                   x   x             ",
"                                        : t m G / ~ / ( _ _ _ } ] ~ H F F ^ [ ..' F V v u >                     x               ",
"                                        % q c V G / ( ( ( _ ( ( ( ( H G F ~ ~ ! F C v i q &                                     ",
"                                        + 2 t v Z F H ~ ~ ~ / ~ / / ( / / / / ! Z n p w : +                                     ",
"                x                       . % 5 i n B Z S S S S D F F H H / / H F Z c r 3 % .                                     ",
"                                          O & 3 u c n n n n v v m B V S F G S V m p 7 ; O                                       ",
"                                            O & 4 r i p i u r r i c v n m m n v p w > # .                                       ",
"                                              O & 2 7 7 0 5 5 5 7 r t i p u t r q > % .                                         ",
"                                              . O & > 6 4 5 4 4 4 5 5 0 0 5 5 2 ; % .                                           ",
"                                                . O & : > 4 > 5 4 4 4 4 4 > : & # . .                                           ",
"                        x                         X . + & ; > > : : : : ; & + O .                                               ",
"                                                      X . + + + + % + + O . .                                                   ",
"                                                                                                                                ",
"                                                                                                                                ",
"                                                                                                                                ",
"                                                                                                                                ",
"                                                                                                                                ",
"                                                                                                                                ",
"                                                                                                                                ",
"                                                                                                          x                     ",
"                                                                                                                                ",
"                                                                                                                                ",
"                                                                                                                                ",
"                                    X                                                                                           ",
"X           X     X X   X     X X           X       x                                                                           ",
"  X   X   X     X     X   X X   X X   X X                 X         X             X                                     X X X   ",
"X X   X X   X X   X X . X X   X X   X X X   X   X X   X X X X X X                   x               X                   X X   X ",
"  X X . . X X   X   X X . X X   X X X   X X               X       X   X   X                 X X X   X               X X X X X X ",
"X     X X     X X   X     X X   X   X X   X X X X   X X X X   X X X   X   X X   X X X X X   X     X       X       X X X X X X X ",
"X X   X X   X X   X X   X X   X X X     X X X   X X X     X X X X   X X X   X X   X       X   X       X X     X     X X X X X X "
};
