/* XPM */
static char *result[] = {
/* columns rows colors chars-per-pixel */
"64 64 174 2 ",
"   c #000001",
".  c #030A01",
"X  c #040008",
"o  c #0C0C0C",
"O  c #021201",
"+  c #041C02",
"@  c #081E05",
"#  c #0F100F",
"$  c #0B1C18",
"%  c #131413",
"&  c #191A19",
"*  c #052402",
"=  c #0A2306",
"-  c #0D2608",
";  c #0E2B08",
":  c #0C3406",
">  c #093905",
",  c #13360C",
"<  c #143C0C",
"1  c #1F361C",
"2  c #102420",
"3  c #162E29",
"4  c #00392C",
"5  c #1D3C35",
"6  c #242524",
"7  c #252925",
"8  c #2D2D2D",
"9  c #353535",
"0  c #373937",
"q  c #3B3B3B",
"w  c #014700",
"e  c #034D00",
"r  c #124309",
"t  c #18420F",
"y  c #164D0C",
"u  c #194C0F",
"i  c #065203",
"p  c #17500C",
"a  c #18520D",
"s  c #1A4510",
"d  c #1C4A12",
"f  c #1E5414",
"g  c #1E5B12",
"h  c #24471E",
"j  c #205416",
"k  c #215F15",
"l  c #215518",
"z  c #235A18",
"x  c #036600",
"c  c #0B6403",
"v  c #086C00",
"b  c #017400",
"n  c #017C00",
"m  c #14710B",
"M  c #1D6014",
"N  c #236216",
"B  c #27621A",
"V  c #29661C",
"C  c #276819",
"Z  c #2B6C1E",
"A  c #2C721E",
"S  c #004B3B",
"D  c #00523F",
"F  c #295522",
"G  c #364A34",
"H  c #3F5F3B",
"J  c #2E6424",
"K  c #306D25",
"L  c #2F7321",
"P  c #307722",
"I  c #337D24",
"U  c #357B28",
"Y  c #397D2D",
"T  c #3F6D3F",
"R  c #004742",
"E  c #264B43",
"W  c #305C53",
"Q  c #00614F",
"!  c #006556",
"~  c #00645A",
"^  c #006A5C",
"/  c #007366",
"(  c #386C60",
")  c #434343",
"_  c #424D41",
"`  c #4D4D4D",
"'  c #465644",
"]  c #535353",
"[  c #5D5D5D",
"{  c #5A7D59",
"}  c #456E65",
"|  c #626262",
" . c #6D6D6D",
".. c #657164",
"X. c #687668",
"o. c #79787A",
"O. c #058401",
"+. c #0C8502",
"@. c #028F00",
"#. c #178C0C",
"$. c #029100",
"%. c #019C00",
"&. c #0C9A00",
"*. c #129C0A",
"=. c #288B1B",
"-. c #259318",
";. c #2A991D",
":. c #02A000",
">. c #00AF00",
",. c #16AD0D",
"<. c #02B200",
"1. c #0EB200",
"2. c #02BF00",
"3. c #19B214",
"4. c #1CBC13",
"5. c #2BAB1C",
"6. c #24BD17",
"7. c #27B41B",
"8. c #2F8D21",
"9. c #338224",
"0. c #2EA021",
"q. c #36A435",
"w. c #01C600",
"e. c #0CC506",
"r. c #01CA00",
"t. c #0BCD05",
"y. c #06D602",
"u. c #0CD402",
"i. c #00D900",
"p. c #09D900",
"a. c #19D40F",
"s. c #1DCE14",
"d. c #1DD313",
"f. c #1ADA10",
"g. c #26C41A",
"h. c #02E300",
"j. c #06EC02",
"k. c #01F400",
"l. c #08F400",
"z. c #00FE00",
"x. c #08F803",
"c. c #008474",
"v. c #008C76",
"b. c #00917D",
"n. c #00987D",
"m. c #5A8A5A",
"M. c #4DAE4C",
"N. c #59B358",
"B. c #478678",
"V. c #48887A",
"C. c #518076",
"Z. c #55877C",
"A. c #688667",
"S. c #009682",
"D. c #009C84",
"F. c #00A78D",
"G. c #00AD97",
"H. c #00AD99",
"J. c #00B799",
"K. c #659E91",
"L. c #57A393",
"P. c #58A594",
"I. c #75B7A8",
"U. c #79BDAD",
"Y. c #00CAA6",
"T. c #00DBB2",
"R. c #7BC2B1",
"E. c #00EDC3",
"W. c #00FECE",
"Q. c #00FED1",
"!. c #82D1BF",
"~. c #8DDBC9",
"^. c #8EE0CD",
"/. c #93E5D2",
/* pixels */
"X                           X X X X X X X X X X X X X X X X X X X X X X X X X X X X X X X X X X X X X X X X X X X X X X X X X X ",
"          O + O .     . . .   X X X X X X X X X X X X X X X X X X X X X X X X X X X X X X X X X X X X X X X X X X X X X X X X X ",
"          y.k.s.I I I I I I V     X X X X X X X X X X X X X X X X X X X X X X X X X X X X X X X X X X X X X X X X X X X X X X X ",
"R ^ !     i.z.d.P P L P L P C , , . X X X X X X X X X X X X X X X X X X X X X X X X X X X X X X X X X X X X X X X X X X X X X X ",
"G.W.E.    i.z.t.a a a a a a N 9.I @   X X X o.X X X X X X X X X X X X X X X X X X X X X X X X X X X X X X X X X X X X X X X X X ",
"H.W.E.    i.z.t.a a a a a a g Z Z l f , X X X X X X X X X X X X X X X X X X X X X X X X X X X X X X X X X X X X X X X o.X X X X ",
"G.W.E.    i.z.t.a a a a a a a a a I I f     X X X X X X X X X X X X X X X X X X X X X X X X X X X X X X X X X X X X X X X X X X ",
"^ S.b.    +.%.+.a a a a a a a a a N B C V z     X X X X X X X X X X X X X X X X X X X X X X X X X X X X X X X X X X X X X X X X ",
"              : a a a a a a a a a a a A I L     X X X X X X X X X X X X X X X X X X X X X X X X X X X X X X X X X X X X X X X X ",
"    - P P ,   . + * p a a a a a a a a a g k P P @   X X X X X X X X X X X X X X X X X X X X X X X X X X X X X X X X X X X X X X ",
"X   ; P P p w >   O y y y y y y y y y y y g P P =     X X X X X X X X X X X X X X X X X X X X X X X X X X X X X X X X X X X X X ",
"          p.z.w.                                                        X X X X X X X X X X X X X X X X X X X X X X X X X X X X ",
"^ n.v.    i.z.w.        < d d d d d d d d d d d d d d d s           X   X X X X X X X X X X X X X X X X X X X X X X X X X X X X ",
"G.W.E.    i.z.w.        Z I I I 9.I I I I I I 9.I I I I P     X X X X X X X X X X X X X X X X X X X X X X X X X X X X X X X X X ",
"/ F.F.    i.z.h.w.1.O   f C C C C C C C C C C C C C C C B B B @ X   X     X X X X X X X X X X X X X X X X X X X X X X X X X X X ",
"          i.z.z.z.j.+   r a a a a a a a a p a a a a a p k I I ,             X X X X X X X X X X X X X X X X X X X X X X X X X X ",
"          =.5.0.5.8.O   + * * * * * * r a a a a a a a a k I I P L L L Z               X X X X X X X X X X X X X X X X X X X X X ",
"X         A 9.9.9.I * * O     o o     < a a y a a a a a k I I I I U I P .   . X       X X X X X X X X X X X X X X X X X X X X X ",
"          y.z.z.z.z.l.z.$.  q  . .&     .     . P I I I I I I I I J 6 7 6 6 6 6 &         %         X X X X X X X X X X X X X X ",
"          i.z.z.z.z.z.z.$.  0 | [ & # # # # # # Z Z Z K Z L Z K Z F 6 8 6 6 6 6 6 % o               X X X X X X X X X X X X X X ",
"          i.z.z.z.z.z.z.$.  % 6 6 6 6 6 6 6 6 6 .                 & 6 6 6 6 6 6 6 6 6               X X X o.X X X X X X X X X X ",
"          &.<.<.<.<.<.<.x   o & & & & ) ] ] ] ] ` ` ` ` ` ` ` ` ` q & & & & % & % & &       X   X   X X X X X X X X X X X X X X ",
"                                      ]  . . . . . . . . . . . . .]                         X X X X X X X X X X X X X X X X X X ",
"S.T.Y.    8 q q 0 0 q q 0 q ) | [ %   8 q q q q q q q q q q q q q ` [ [ [ [ 8         X X X         X X X X X X X X X X X X X X ",
"H.W.E.    q ) ) ) ) ) ) ) ) ]  . .& . . . . . . . . . . . . . .   `  . . . .0 .       X X           X X X X X X X X X X X X X X ",
"G.W.E.    6 7 7 8 6 6 8 [  .] % % P I P P I I P I P I P I P P I P I Y Y Y Y I I B                             X X X X X X X X X ",
"G.W.E.    & 6 6 6 8 0 0 [ | ]     A A L L L L A L P 9.5.0.0.0.0.0.0.0.0.0.0.0.0.-.b b b b b b b b b < : =     X X X X X X X X X ",
"G.W.E.    6 6 6 6 8  . .q                           <.z.z.z.z.z.z.z.z.z.z.z.z.z.z.z.z.z.z.z.z.z.z.z.8.I j                       ",
"c.Y.J.    ) ` ` ` ` ] ] 8   5 ( ( ( ( ( ( ( ( ( $   +.w.2.2.2.2.2.2.2.w.2.2.2.2.w.2.2.2.2.2.2.e.d.s.6.6.,.:.:.:.:.:.:.m % %     ",
"          [  . . . .o       W P.L.P.L.L.L.L.L.P.3                                             t I 9.l.z.z.z.z.z.z.z.z.3.6 6     ",
"X   X     q ) ) ) q X   K.U.R.!.!.!.!.!.!.!.!.!.U.U.U.U.U.U.U.U.U.U.U.U.U.U.U.U.U.U.U.U.U.}   1 H T q.q.M.N.N.N.N.N.N.m.[ ]     ",
"X X                     R././././././././././././././././././././././././././././././././.Z.  6 ) ) ) ) |  . . . . . . . .|     ",
"X   X                   R././././././././././././././././.^./././././././.^./././././.^./.Z.  6 ) ) ) ) |  . . . . . . . ...    ",
"          & 6 6 6 6     I.~.~.^.^.^.~.~.^.~.^.^.~.~.~.~.~.~.~.~.~.~.~.~.~.~.~.~.~.~.~.~.~.C.  6 _ _ T T { A.A.A.A.A.A.X. .|     ",
"          |  . . ...o       W P.P.P.L.L.P.P.L.P.3                                             s I 9.l.z.z.z.z.z.z.z.z.3.6 6     ",
"~ b.v.    ` [ [ [ [ ) q 6   E V.V.V.B.V.V.V.V.V.2   c $.$.$.$.$.$.$.$.$.$.$.$.$.$.$.$.$.$.$.$.*.7.7.a.f.u.r.w.r.w.r.w.#.& &     ",
"G.W.E.    6 6 6 6 8  . .q               X           <.z.z.z.z.z.z.z.z.z.z.z.z.z.z.z.z.z.z.z.z.z.z.z.8.I f                       ",
"G.W.E.    & 6 6 6 6 ` ` ] ] )     z B B B z B B B z ;.g.g.g.g.g.g.g.g.g.g.g.g.g.4.<.>.>.>.>.>.>.>.>.M l ,                       ",
"G.W.E.    6 6 6 6 6 6 6 |  .[   . I 9.I I 9.I 9.I 9.9.I I I 9.I I I I I I I I I B                                               ",
"G.W.E.  X 9 q ) q ) q ) ) ` ] | | 1 , , , , , , , , , , , , , , < ' ........G , ;                                               ",
"G.W.E.    q ) ) ) ) ) ) ) ) ]  . .&   o o o X o o o o o o X o o o `  . . . .9                                                   ",
"                                      ]  . . . . . . . . . . . . .]                                                             ",
"          v n n n n n n w   X # o % o ` | | | [ [ [ [ [ [ | [ | | ) o o o % % o # # o                                           ",
"          i.z.z.z.z.z.z.$.  % 6 6 6 6 6 6 6 6 7 o                 & 6 6 6 6 6 6 6 6 6                                           ",
"          i.z.z.z.z.z.z.$.  8 ] ` 6 & & & & & & j z z z z z z z z h 6 6 7 6 6 6 6 & &                                           ",
"          i.z.z.z.z.z.z.@.  )  . .&             P I I I I 9.I U I J 6 6 6 6 6 6 &                                               ",
"          -.5.5.5.5.O.O.e   & q 0 o   > r r r r k B k N B 9.I I I U K J % % % % o                                               ",
"          L I 9.9.P .                 r a a a a a a a a k I I I I I I P                                                         ",
"          y.x.x.x.j.+   r y a y y y a y a a u a a a a a g I 9.< @ @ @ @                                                         ",
"S ! Q     i.z.l.h.u.+   y g g k k k k g k g g k g g g g N L L ;                                                                 ",
"H.Q.E.    i.z.w.        Z I I I I I I I I I I I I I I I L                                                                       ",
"v.Y.J.    i.z.w.        j B B B B B B B B B B B V B B V z                                                                       ",
"          i.z.w.                                                                                                                ",
"    = B B #.%.b   . r r r r r r r r r r r u V V @                                                         o.                    ",
"    ; I 9.<       O y a a a a a a a a a a k I 9.@                                                                               ",
"    . ; ; O   : y y a a a a a a a a a V I Z ; ; .                                                                               ",
"4 D D     w i i a a a a a a a a a g a Z L V                                                                                     ",
"G.W.E.    y.z.t.a a a a a a a a a I I j   .                                                                                     ",
"G.W.E.    i.z.t.a a a a a a g N N V V t     X       o.                                                                          ",
"G.W.E.    i.z.t.a a a a a a N I I @   X X                 X         X             X                                     X X X   ",
"/ F.D.    i.z.d.Z Z Z Z Z Z C l j O X   X X X X X X   X X   X   X                   o.              X                   X X   X ",
"          i.z.d.9.I 9.9.9.I Z       X X                 X     X     X X   X                 X X X   X               X X X X X X ",
"          x b c , , , , , , ;     X   X X   X   X X X X X X   X X X X     X X   X     X X   X     X       X       X X X X X X X ",
"                              X X X X   X X   X     X     X X   X   X   X X   X X   X X       X       X X     X     X X X X X X "
};
