/* XPM */
static char *result[] = {
/* columns rows colors chars-per-pixel */
"64 64 172 2 ",
"   c #010001",
".  c #030A01",
"X  c #040008",
"o  c #0C0C0C",
"O  c #021201",
"+  c #041C02",
"@  c #081E04",
"#  c #0F100F",
"$  c #0B1C18",
"%  c #131413",
"&  c #191A19",
"*  c #052402",
"=  c #0A2306",
"-  c #0D2A07",
";  c #0E2B09",
":  c #0C3406",
">  c #093905",
",  c #13360C",
"<  c #143C0C",
"1  c #1F361C",
"2  c #102420",
"3  c #162E29",
"4  c #00392C",
"5  c #1D3C35",
"6  c #242524",
"7  c #252925",
"8  c #2D2D2D",
"9  c #353535",
"0  c #373937",
"q  c #3B3B3B",
"w  c #014700",
"e  c #034D00",
"r  c #124309",
"t  c #164D0C",
"y  c #194C0F",
"u  c #065203",
"i  c #17500C",
"p  c #18520D",
"a  c #1A4410",
"s  c #1C4A12",
"d  c #1E5414",
"f  c #1E5B12",
"g  c #24471E",
"h  c #205416",
"j  c #215D15",
"k  c #215518",
"l  c #235A18",
"z  c #036600",
"x  c #0B6403",
"c  c #086C00",
"v  c #017400",
"b  c #017C00",
"n  c #14710B",
"m  c #236216",
"M  c #27621A",
"N  c #29661C",
"B  c #276819",
"V  c #2B6C1E",
"C  c #2C721E",
"Z  c #004B3B",
"A  c #00523F",
"S  c #295522",
"D  c #364A34",
"F  c #3F5F3B",
"G  c #2E6424",
"H  c #306D25",
"J  c #2F7321",
"K  c #307722",
"L  c #337D24",
"P  c #357B28",
"I  c #397D2D",
"U  c #40693F",
"Y  c #004742",
"T  c #264B43",
"R  c #305C53",
"E  c #00614F",
"W  c #006556",
"Q  c #00645A",
"!  c #006A5C",
"~  c #007366",
"^  c #386C60",
"/  c #434343",
"(  c #424D41",
")  c #4D4D4D",
"_  c #465644",
"`  c #535353",
"'  c #5D5D5D",
"]  c #456E65",
"[  c #626262",
"{  c #6D6D6D",
"}  c #657164",
"|  c #687668",
" . c #79787A",
".. c #058401",
"X. c #0C8502",
"o. c #028F00",
"O. c #178C0C",
"+. c #029100",
"@. c #019C00",
"#. c #0C9A00",
"$. c #129C0A",
"%. c #288B1B",
"&. c #259318",
"*. c #2A991D",
"=. c #02A000",
"-. c #00AF00",
";. c #16AD0D",
":. c #02B200",
">. c #0EB200",
",. c #02BF00",
"<. c #19B214",
"1. c #1CBC13",
"2. c #2BAB1C",
"3. c #24BD17",
"4. c #27B41B",
"5. c #2F8D21",
"6. c #338224",
"7. c #2EA021",
"8. c #36A435",
"9. c #01C600",
"0. c #0CC506",
"q. c #01CA00",
"w. c #0BCD05",
"e. c #06D602",
"r. c #0CD402",
"t. c #00D900",
"y. c #09D900",
"u. c #19D40F",
"i. c #1DCE14",
"p. c #1DD313",
"a. c #1ADA10",
"s. c #26C41A",
"d. c #02E300",
"f. c #06EC02",
"g. c #01F400",
"h. c #08F400",
"j. c #00FE00",
"k. c #08F803",
"l. c #008474",
"z. c #008C76",
"x. c #00917D",
"c. c #00987D",
"v. c #5A8A5A",
"b. c #4DAE4C",
"n. c #59B358",
"m. c #478678",
"M. c #48887A",
"N. c #518076",
"B. c #55877C",
"V. c #688667",
"C. c #009682",
"Z. c #009C84",
"A. c #00A78D",
"S. c #00AD97",
"D. c #00AD99",
"F. c #00B799",
"G. c #00BFA1",
"H. c #659E91",
"J. c #57A393",
"K. c #58A594",
"L. c #75B7A8",
"P. c #79BDAD",
"I. c #00CAA6",
"U. c #00DBB2",
"Y. c #7BC2B1",
"T. c #00EDC3",
"R. c #00FECE",
"E. c #00FED1",
"W. c #82D1BF",
"Q. c #8DDBC9",
"!. c #8EE0CD",
"~. c #93E5D2",
/* pixels */
"X X X X X X X X X X X X X X X X X X X X X X X X X X X X X X X X X X X X X X X X X X X X X X X X X                               ",
"X X X X X X X X X X X X X X X X X X X X X X X X X X X X X X X X X X X X X X X X X X X X X X X X X ; , , , , , , x v z         X ",
"X X X X X X X X X X X X X X X X X X X X X X X X X X X X X X X X X X X X X X X X X X X X X X X     V 6.P L 6.6.6.p.j.e.          ",
"X X X X X X X X X X X X X X X X X X X X X X X X X X X X X X X X X X X X X X X X X X X X X   O k h B V V V V V V u.j.t.    A.A.~ ",
"X X X X X X X X X X X X X X X X X X X X X X  .X X X X X X X X X X X X X X X X X X X X X X   @ L P m p p p p p p w.j.t.    T.R.S.",
"X X X X X X X X  .X X X X X X X X X X X X X X X X X X X X X X X X X X X X X X X X X X   a N M m m f p p p p p p w.j.t.    T.R.S.",
"X X X X X X X X X X X X X X X X X X X X X X X X X X X X X X X X X X X X X X X X X X     h L L i p p p p p p p p w.j.y.    T.R.D.",
"X X X X X X X X X X X X X X X X X X X X X X X X X X X X X X X X X X X X X X X X     V K B f f p p p p p p p p p u e w     Z A 4 ",
"X X X X X X X X X X X X X X X X X X X X X X X X X X X X X X X X X X X X X X X X ; ; V K V i i p p p p p p p t p :   O - - .     ",
"X X X X X X X X X X X X X X X X X X X X X X X X X X X X X X X X X X X X X     = 6.6.m p p p p p p p p i p p O       < P 6.-   X ",
"X X X X X X X X X X X X X X X X X X X X X X X X X X X X X   X     X X   X     @ N M y r r r r r r r r r r r .   v @.O.N M =     ",
"X X X X X X X X X X X X  .X X X X X X X X X X X X X X X                                                         9.j.e.          ",
"X X X X X X X X X X X X X X X X X X X X X X X X X X X X X X   X       l M M M M M M M M M M M M M M M d         9.j.t.    F.I.z.",
"X X X X X X X X X X X X X X X X X X X X X X X X X X X X X X X X X     C P 6.L 6.P 6.L 6.L L L L P L P V         9.j.t.    T.E.D.",
"X X X X X X X X X X X X X X X X X X X X X X X X X X             ; K C m j j f f j j f f j j f f f j f t   + r.d.g.j.t.    E W Z ",
"X X X X X X X X X X X X X X X X X X X X X   X X X X     @ @ @ @ < P P j i i i p i i i p p i t i t i i r   + f.k.k.k.e.          ",
"X X X X X X X X X X X X X X X X X X X X X               K L L L L 6.L f i i p p p p p p r         .       . K 6.P 6.C           ",
"X X X X X X X X X X X X X X X X X   X X       o # % % % G H K L L P L B m m m j r r r r :   o 9 q &   e ....2.2.2.2.&.        X ",
"X X X X X X X X X X X X X                     & 7 6 6 6 7 6 G P P 6.L L P 6.P K             & { { q   o.j.j.j.j.j.j.t.          ",
"X X X X X X X X X X X X X X               & & 6 7 6 6 6 7 6 g l l l l l l l l k & & & & & & 6 ` ` 8   +.j.j.j.j.j.j.t.        X ",
"X X X X X X X X X X X X X X               6 6 6 6 6 6 6 6 6 &                 . 7 7 6 6 7 6 6 6 6 %   +.j.j.j.j.j.j.e.          ",
"X X X X X X X X X X X X X X X X X X       o o % # o % o # % / ' ' ' ' [ ' ' ' [ [ ' [ [ ) # # # # X   w b b b b b b c           ",
"X X X X X X X X X X X X X X X X X X X                       ) { { { { { { { { { { { { { `                                       ",
"X X X X X X X X X X X X X X           X X         9 { { { { ) o o o o o o o o X o o o o X   & { { ` / / / / / / / / 0     T.R.S.",
"X X X X X X X X X X X X X X           X X     ; , D } } } } _ , , , , , , , , , , , , , , , 1 [ [ ` ) ) / q q / q D 9     T.R.S.",
"X X X X X X X X X                             M P 6.L L L L L P 6.L L P 6.P 6.6.L 6.L 6.6.P L .   ' { ' 6 6 6 6 6 6 6     T.R.S.",
"  X X X X   X X       , h f -.:.-.-.-.-.-.-.-.1.s.s.s.s.s.s.s.s.s.s.s.s.s.*.l M M M l M M M l     / ` ` ) ) 7 6 6 6 6     T.R.S.",
"                      d P 5.j.j.j.j.j.j.j.j.j.j.j.j.j.j.j.j.j.j.j.j.j.j.j.:.        X                 q { { 8 6 6 6 6     T.R.S.",
"    & & O.q.q.q.q.q.9.w.a.p.4.4.$.+.+.+.+.+.+.+.+.+.+.+.+.+.+.+.+.+.+.+.+.x   2 M.M.m.m.m.m.m.m.m.T   6 / q ' ' ' ' `     z.x.Q ",
"    6 6 <.j.j.j.j.j.j.j.j.h.6.6.a                                             3 K.K.K.K.K.J.K.K.K.R       o { { { { '           ",
"    [ { | V.V.V.V.V.V.v.U U ( ( 6   N.Q.Q.Q.Q.Q.Q.Q.Q.Q.Q.Q.Q.Q.Q.Q.Q.Q.Q.Q.Q.Q.!.Q.!.!.Q.!.!.Q.Q.Q.Q.L.    & 6 6 6 &           ",
"    [ { { { { { { { { ' / / / / 6   B.~.~.~.~.~.~.~.~.~.~.~.~.~.~.~.~.~.~.~.~.~.~.~.~.~.~.~.~.~.~.~.~.Y.                        ",
"    [ { { { { { { { { ' / / / / 6   B.~.~.~.~.~.~.~.~.~.~.~.~.~.~.~.~.~.~.~.~.~.~.~.~.~.~.~.~.~.~.~.~.P.                        ",
"    ` ' v.n.n.n.n.n.n.b.8.8.F F 1   ] P.P.P.P.P.P.P.P.P.P.P.P.P.P.P.P.P.P.P.P.P.W.W.W.W.W.W.W.W.W.Y.P.H.  . / / / / 0           ",
"    6 6 <.j.j.j.j.j.j.j.j.h.6.L a                                             3 K.J.J.J.J.J.J.J.K.R       X { { { { '           ",
"    % & n =.=.=.=.=.=.;.3.3.i.p.0.,.,.,.,.9.,.,.,.9.,.,.,.,.,.,.,.,.,.,.9.X.  $ ^ ^ ^ ^ ^ ^ ^ ^ ^ 5   8 ` ` ) ) ) ) /     F.G.l.",
"                      h 6.5.j.j.j.j.j.j.j.j.j.j.j.j.j.j.j.j.j.j.j.j.j.j.j.:.                          q { { 9 6 6 6 &     T.R.S.",
"                      * : < v v v v v v v v v &.7.7.7.7.7.2.7.7.7.7.7.*.7.5.K C J J J J J J C     ` [ ` q 0 6 6 6 6 6     T.R.S.",
"                 .                            M K L I I I I P L L L K L L K K L L K L K L K K % % ' { ' 7 7 8 6 7 7 6     T.R.S.",
"                                                . 0 { { { { )   . . . . . . . . . . . . . . & { { ` / / / / / / / / q     T.R.S.",
"                                                  8 ' ' ' ' ) 0 q q q 0 q q q q q q q q 8   & ' [ / q 0 0 0 0 0 q q 9     I.U.C.",
"                                                            ` { { { { { { { { { { { { { `                                       ",
"                                          & & & & & & & & & 0 ) ) ) ) ) ) ) ) ) ` ` ` ` / & % & & o   z :.:.:.:.:.:.#.          ",
"                                          7 6 6 6 6 6 7 7 6 &                 . 7 6 6 6 6 6 6 6 6 o   +.j.j.j.j.j.j.t.          ",
"                         .                o # 6 7 6 6 7 6 6 S V H V V H V V V V # # o o # # & [ [ 9   o.j.j.j.j.j.j.t.          ",
"                                              & 6 6 6 6 7 7 G L L L L L L 6.L L .   . .     & { { /   o.k.j.j.k.j.j.e.          ",
"                                                    X . K L L L 6.L L f p p p p t y i i <   . o o     O * * 6.6.6.6.C           ",
"                                                        V H J J K P L j p p p p p p p p r * * * * * * +   . *.7.7.2.%.          ",
"                                                                , 6.6.f p p p p p p p i p p p i p p p r   + g.j.j.j.t.          ",
"                                                                @ M M M B B B B B B B B B B B B M B B j   + >.,.d.j.t.    Z.A.~ ",
"                                                                      K L L L L L L L 6.L L 6.L L L L V         9.j.t.    T.R.S.",
"                                                                      r s s s s s s s s s s s s s s s <         9.j.t.    z.c.! ",
"                                                                                                                9.j.y.          ",
"                                                                              = K K f p t t t t t t t t t t O   > w i K K -     ",
"                                                                              @ K K m p p p p p p p p p i p + + .   , K K -     ",
"                                                                                    J 6.C i p p p p p p p p p p :               ",
"                                                                                    l M B M m p p p p p p p p p X.@.X.    x.c.! ",
"                                    X                                                   d 6.L p p p p p p p p p w.j.t.    T.R.S.",
"X                 X     X X   X X           X        .                                  , d h V C f p p p p p p w.j.t.    T.R.S.",
"X     X   X   X X   X X     X   X   X   X                 X         X             X         @ L 6.m p p p p p p w.j.t.    T.R.S.",
"X   X     X X X X   X   X   X X X X X X X     X X X     X X   X X                    .      . , , M K K K K K K p.j.t.    W ! Y ",
"  X X X X X   X X X X X   X X     X   X   X         X     X   X     X X   X                 X     N L L L L L K i.g.e.          ",
"X X   X   X X X   X   X X     X   X X X X X   X X     X X     X X     X   X X     X X   X   X   X   .   .   .   O + +           ",
"    X   X X     X X X X   X X   X X     X   X   X X   X X   X   X X X   X X   X X   X X       X                               X "
};
