/* XPM */
static char *result[] = {
/* columns rows colors chars-per-pixel */
"64 64 174 2 ",
"   c #000001",
".  c #030A01",
"X  c #040008",
"o  c #0C0C0C",
"O  c #021201",
"+  c #041C02",
"@  c #081E05",
"#  c #0F100F",
"$  c #0B1C18",
"%  c #131413",
"&  c #191A19",
"*  c #052402",
"=  c #0A2306",
"-  c #0D2A07",
";  c #0E2B08",
":  c #0C3406",
">  c #093905",
",  c #13360C",
"<  c #143C0C",
"1  c #1F361C",
"2  c #102420",
"3  c #162E29",
"4  c #00392C",
"5  c #1D3C35",
"6  c #242524",
"7  c #252925",
"8  c #2D2D2D",
"9  c #353535",
"0  c #373937",
"q  c #3B3B3B",
"w  c #014700",
"e  c #034D00",
"r  c #124309",
"t  c #164D0C",
"y  c #194C0F",
"u  c #065203",
"i  c #17500C",
"p  c #18520D",
"a  c #1A4410",
"s  c #1C4A12",
"d  c #1E5414",
"f  c #1E5B12",
"g  c #24471E",
"h  c #205416",
"j  c #215F15",
"k  c #215518",
"l  c #235A18",
"z  c #036600",
"x  c #0B6403",
"c  c #086C00",
"v  c #017400",
"b  c #017C00",
"n  c #14710B",
"m  c #236216",
"M  c #27621A",
"N  c #29661C",
"B  c #276819",
"V  c #2B6C1E",
"C  c #2C721E",
"Z  c #004B3B",
"A  c #00523F",
"S  c #295522",
"D  c #364A34",
"F  c #3F5F3B",
"G  c #2E6424",
"H  c #306D25",
"J  c #2F7321",
"K  c #307722",
"L  c #337D24",
"P  c #357B28",
"I  c #397D2D",
"U  c #3F6D3F",
"Y  c #40693F",
"T  c #004742",
"R  c #264B43",
"E  c #305C53",
"W  c #00614F",
"Q  c #006556",
"!  c #00645A",
"~  c #006A5C",
"^  c #007366",
"/  c #386C60",
"(  c #434343",
")  c #424D41",
"_  c #4D4D4D",
"`  c #465644",
"'  c #535353",
"]  c #5D5D5D",
"[  c #5A7D59",
"{  c #456E65",
"}  c #626262",
"|  c #6D6D6D",
" . c #657164",
".. c #687668",
"X. c #787878",
"o. c #058401",
"O. c #0C8502",
"+. c #028F00",
"@. c #178C0C",
"#. c #029100",
"$. c #019C00",
"%. c #0C9A00",
"&. c #129C0A",
"*. c #288B1B",
"=. c #259318",
"-. c #2A991D",
";. c #02A000",
":. c #00AF00",
">. c #16AD0D",
",. c #02B200",
"<. c #0EB200",
"1. c #02BF00",
"2. c #19B214",
"3. c #1CBC13",
"4. c #2BAB1C",
"5. c #24BD17",
"6. c #27B41B",
"7. c #2F8D21",
"8. c #338224",
"9. c #2EA021",
"0. c #36A435",
"q. c #01C600",
"w. c #0CC506",
"e. c #01CA00",
"r. c #0BCD05",
"t. c #06D602",
"y. c #0CD402",
"u. c #00D900",
"i. c #09D900",
"p. c #19D40F",
"a. c #1DCE14",
"s. c #1DD313",
"d. c #1ADA10",
"f. c #26C41A",
"g. c #02E300",
"h. c #06EC02",
"j. c #01F400",
"k. c #08F400",
"l. c #00FE00",
"z. c #08F803",
"x. c #008474",
"c. c #008C76",
"v. c #00917D",
"b. c #00987D",
"n. c #5A8A5A",
"m. c #4DAE4C",
"M. c #59B358",
"N. c #478678",
"B. c #48887A",
"V. c #518076",
"C. c #55877C",
"Z. c #688667",
"A. c #009682",
"S. c #009C84",
"D. c #00A78D",
"F. c #00AD97",
"G. c #00AD99",
"H. c #00B799",
"J. c #00BFA1",
"K. c #659E91",
"L. c #57A393",
"P. c #58A594",
"I. c #75B7A8",
"U. c #79BDAD",
"Y. c #00CAA6",
"T. c #00DBB2",
"R. c #7BC2B1",
"E. c #00EDC3",
"W. c #00FECE",
"Q. c #00FED1",
"!. c #82D1BF",
"~. c #8DDBC9",
"^. c #8EE0CD",
"/. c #93E5D2",
/* pixels */
"      ^ F.F.G.4         c.G.Z         X       F.F.F.F.F.!   X X X     x.G.F.F.G.A.                ^ G.~         ~ G.F.F.T     X ",
"      D.W.W.W.A         Y.Q.Q                 W.W.W.W.W.v.  X X X X   J.W.W.W.W.T.                D.W.b.        A.W.W.W.~       ",
"      S.E.E.E.Z . ; @   H.E.W                 E.E.E.E.E.c.  X X X     H.E.E.E.E.Y.                S.E.c.  - -   v.E.E.E.!       ",
"                ; 8.N                                                                                     K K                   ",
"                ; L N                                                                                     L K                   ",
"  z t.u.u.u.t.w . < @.u.u.u.u.i.J =.u.u.t.c   0 9 6 6 6 ' } &     0 ] ( 6 6 6 0 9   %.u.u.t.C *.u.u.u.u.t.i ,   O.u.u.u.u.t.O   ",
"  v l.l.l.l.l.u     $.l.l.l.l.z.L 4.l.l.l.b   ( q 6 6 6 ] | 6     ( | _ 6 6 6 ( q   ,.l.l.l.8.4.l.l.l.l.l.w     $.l.l.l.l.j.+   ",
"  x s.p.y.r.r.u :   v q.q.q.j.z.8.4.l.l.l.b   ( D 6 6 6 ] | &     ( | ' 7 6 7 ( 0   ,.l.l.l.L 9.l.g.q.q.e.> . : O.r.r.r.s.a.O   ",
"  , L C p p p p t           g.z.8.4.l.l.l.b   ( ( 6 6 6 ] | 6     ( | _ 7 6 8 ( q   ,.l.l.z.8.4.l.q.        + p p p p p K K .   ",
"  , 8.V p p p p t O .       y.h.K 4.l.l.l.b   ( q 6 8 8 ] } 6     ( } _ 8 7 6 ( q   ,.l.l.l.8.-.h.<.      . * p p p p p K L .   ",
"  , L V p p p p p p r       + + . o.l.l.l.b   ( q 6 _ | R o         o ' | q 7 ( 0   ,.l.l.l.* O + O       t i p p p p p K K     ",
"  , L V p p p p p p r             o.l.l.l.b   ( ( 6 _ | (             ' | q 7 ( 0   ,.l.l.z.*             t p p p p p p K L .   ",
"  , 8.V p p p p p p r   d V y r   e +.#.#.w   ( _ ] _ q 6   I.U.R.K.  8 q ] ] ( q   z #.#.+.O + r f V <   t p p p p p p K L .   ",
"  , 8.V p i p p p p r   M L f t               ( _ | '       ~././.U.      } | ( 0             * p B L s   t i p p p p i K L     ",
"X ; V M m f p p p p r   M L j t . 6 q 8 % X   ' ' ] (   R E ~././.R.E 5   ' ' ' _   o # 9 q X * i B L s   t p p i p f m V G     ",
"X     h L m p p p p r   M L j t   q | ' 6 #   | }       B.P.^././.~.L./     % | ]   & 6 } | o * p B L s   t p p p p C 8.,   X X ",
"X X   k L M i p p p r   M L f t   q | ' 6 o   | } .     N.P.^././.!.L./     % | ]   & 7 ] | o * p B L s   t p p p p V L ,   X X ",
"X X X O @ N L f p p r   N L j p   o % 6 6 #   % 1 L M   N.L.^././.!.L./   J K & %   & 6 & &   * p B L s   t p p m L k @ X   X X ",
"X X X X   N L p p p r   M L j t       & 6 o     , P M   N.L.^././.!.P./   J K .     & 6 #     * i B 8.s   t p p B L d   X X X X ",
"X X X     a d V N p r   M L j t < :   & 6 _ ] . , 8.M   N.L.~././.!.P./   J K . 8 ' ( 6 #   < r p B L s   t p V M d ,   X X X X ",
"X X X X X X   K K p r   M L f p p r   & 6 } | o , 8.M   N.P.~././.!.L./   J K . q | ' 6 # . t p p B 8.s   t f L G   X X X X X X ",
"X X X X X     G V m y   M L f p p r   & 6 } | o , P l   N.P.^././.!.L./   J L . 0 | ' 6 #   p p p B L s   f m C l     X X X X X ",
"X X X X X X X   ; L N   M L h p p r   & 6 } | o , 8.M   N.L.^././.!.L./   J P . q | ' 6 # . p p p B L s   K K     X X X X X X X ",
"X X X X X X X   ; 8.N   M L j p p r   & 6 } | X , L M   B.P.~././.!.L./   J K . q | ' 7 %   p p p B L s   K K     X X X X X X X ",
"X X X X X X X X . = @   M L j p p m K h . } | o , L M   2 3 ~././.U.3 $   J K . q | _ X V K p p i B L s   = = X X X X X X X X X ",
"X X X X X X X X X       M L j t p m L l   ] | o , L M       ~././.U.      J K . q | _   V L p p p B L s       X X X X X X X X X ",
"X X X X X X X X X       M L j p p m L l   } | X , L =.,.x   ~././.U.  O.,.7.L . q | _   V L p p p B L s       X X X X X X X X X ",
"X X X X X X X X X X     M L f t p m 8.l   ] | o , 8.f.l.+.  ~././.U.  q.l.9.K . 0 | '   J L p p p B L s   X X X X X X X X X X X ",
"X X X X X X X X   X X   l J j j f M L l   } | o , 8.f.l.#.  ~././.U.  1.l.9.K . q | _   V L j j f M J a   X X X X X X     X X   ",
"X X X.X X X X X X           K L L L L l   ] | o , L f.l.#.  ~././.U.  1.l.9.L . q | _   V L L P 8.M       X X X X X X X X X   X ",
"X X X X X   X   X           J 8.8.P 8.l   ] | o , 8.f.l.#.  ~././.U.  1.l.9.K . 0 | _   H L 8.L 8.N         X X X X X           ",
"X X         X   X           ; < L L L l   } | o , P f.l.#.  ~././.U.  w.l.9.K . 0 | '   V L P K ; =       X X   X               ",
"X   X     X                   @ L P L l   ] | X , L f.l.#.  ~././.U.  1.l.9.K . 0 | _   V L L J                                 ",
"                              + L P G g & ) ' _ ` L f.l.#.  ~././.U.  1.l.9.P _ _ ' q & S G L H                 X.              ",
"                              @ L H 6 6 6 #   |  .L f.l.#.  ~.^./.U.  1.l.9.I | ]   & 6 6 7 P J               X.  X.            ",
"                              + K G 6 6 6 #   |  .L f.l.#.  ~././.U.  q.l.9.I | ]   & 6 6 7 K V                 X.              ",
"                                  % 6 6 6 o   |  .8.f.l.#.  ~././.U.  1.l.9.I | ]   & 6 6 6 .                                   ",
"                                  % 7 6 6 %   |  .L f.l.#.  ~././.U.  1.l.9.I | ]   & 6 7 7                                     ",
"                X.                # 6 6 6 o   9 D P f.l.#.  ~././.U.  1.l.9.L 0 8   & 6 7 6                                     ",
"                                  % 6 6 6 %     , L f.l.#.  ~././.U.  q.l.9.K .     & 6 7 6                                     ",
"                                  o & 6 6 #     - N 3.l.#.  ~.^./.U.  1.l.=.M       & 6 6 &                                     ",
"                                      & 6 o         :.l.#.  ~././.U.  q.l.v         & 6 #                                       ",
"                                      & 6 o         :.l.#.  ~././.U.  1.l.v         % 7 o                                       ",
"                                                    :.l.#.  ~././.U.  1.l.v                                                     ",
"                        X.                          :.l.#.  ~././.U.  q.l.v                                                     ",
"                                                    :.l.#.  V.C.C.{   1.l.v                                                     ",
"                                                    :.l.#.            1.l.v                                                     ",
"                                                    :.l.&.a 6 6 6 1 a w.l.v                                                     ",
"                                                    :.l.6.8.) ( ( F L s.l.v                                                     ",
"                                                    :.l.6.8.) ( ( F 8.s.l.v                                                     ",
"                                                    f 7.p.k.Y ( ( 0.k.5.7.,                                                     ",
"                                                    d L d.l.U ( ( 0.l.5.8.:                                                     ",
"                                                    , h y.l.[ } } m.l.>.h *                                                     ",
"                                                        e.l.Z.| | M.l.$.                                  X.                    ",
"                                                        e.l.Z.| | M.l.;.                                                        ",
"                                                        e.l.Z.| | M.l.;.                                                        ",
"                                                        e.l.Z.| | M.l.;.                                                        ",
"                                    X                   e.l.Z.| | M.l.;.                                                        ",
"X                   X   X X     X           X       ]   e.l.Z.| | M.l.;.                                                        ",
"  X   X   X   X   X X X   X   X X   X   X               @.2...| | n.2.n         X                                       X X X   ",
"X X   X   X X X   X X   X X   X X   X X X     X         & 7 | | | ] 6 %             X.              X                   X X   X ",
"  X X   X X   X X   X X   X X   X     X X X     X       & 6 } } } ' 6 %                     X                       X X X X X X ",
"X     X   X   X X   X     X X     X X     X X     X X                     X   X   X X X     X   X X       X         X X X X X X ",
"X X   X X X X X   X X   X X   X X X   X X   X   X X                           X X   X     X X         X X         X X X X X X X "
};
