/* XPM */
static char *result[] = {
/* columns rows colors chars-per-pixel */
"64 64 169 2 ",
"   c black",
".  c #010101",
"X  c #020202",
"o  c gray1",
"O  c #030005",
"+  c #040404",
"@  c gray2",
"#  c #060606",
"$  c #070707",
"%  c #040008",
"&  c #050209",
"*  c #060209",
"=  c #06020A",
"-  c #07030B",
";  c #08040C",
":  c #09050C",
">  c #09050D",
",  c #090909",
"<  c gray4",
"1  c #0B0B0B",
"2  c #0C0C0C",
"3  c gray5",
"4  c #0E0E0E",
"5  c gray6",
"6  c #0D0A10",
"7  c #0E0B10",
"8  c #120F14",
"9  c #101010",
"0  c gray7",
"q  c #131313",
"w  c #141216",
"e  c gray8",
"r  c #151515",
"t  c #161616",
"y  c gray9",
"u  c #171518",
"i  c #171519",
"p  c #171618",
"a  c #171619",
"s  c #181619",
"d  c #18171A",
"f  c #181818",
"g  c #1A181B",
"h  c #1A191B",
"j  c gray10",
"k  c #1B1B1B",
"l  c #1C1A1D",
"z  c #1C1B1D",
"x  c gray11",
"c  c #1D1C1D",
"v  c #1D1D1D",
"b  c #1E1C1F",
"n  c gray12",
"m  c #1F1D20",
"M  c #202020",
"N  c #212021",
"B  c gray13",
"V  c #222123",
"C  c #222222",
"Z  c #232323",
"A  c #232324",
"S  c gray14",
"D  c #252525",
"F  c gray15",
"G  c #272727",
"H  c #282828",
"J  c gray16",
"K  c #29282A",
"L  c #2A2A2A",
"P  c gray17",
"I  c #2B2B2C",
"U  c #2C2B2C",
"Y  c #2C2C2C",
"T  c #2D2D2D",
"R  c #2E2D2F",
"E  c gray18",
"W  c #2F2F2F",
"Q  c #2F2F30",
"!  c #302F30",
"~  c gray19",
"^  c #313131",
"/  c #323232",
"(  c #333233",
")  c gray20",
"_  c #333334",
"`  c #343434",
"'  c #353535",
"]  c #353536",
"[  c #363536",
"{  c gray21",
"}  c #373737",
"|  c gray22",
" . c #393939",
".. c #39393A",
"X. c #3A3A3A",
"o. c gray23",
"O. c #3C3C3C",
"+. c gray24",
"@. c #3D3D3E",
"#. c #3E3E3E",
"$. c #3F3F3F",
"%. c #403F40",
"&. c gray25",
"*. c #404041",
"=. c #414141",
"-. c gray26",
";. c #434343",
":. c #444444",
">. c gray27",
",. c #464646",
"<. c gray28",
"1. c #484848",
"2. c #494949",
"3. c gray29",
"4. c #4B4B4B",
"5. c #4C4C4C",
"6. c gray30",
"7. c #4E4E4E",
"8. c gray31",
"9. c #505050",
"0. c #515151",
"q. c gray32",
"w. c #535353",
"e. c gray33",
"r. c #555555",
"t. c #565656",
"y. c gray34",
"u. c #585858",
"i. c gray35",
"p. c #5A5A5A",
"a. c #5B5B5B",
"s. c gray36",
"d. c #5D5D5D",
"f. c gray37",
"g. c #5F5F5F",
"h. c #606060",
"j. c gray38",
"k. c #626262",
"l. c gray39",
"z. c #646464",
"x. c #656565",
"c. c gray40",
"v. c #676767",
"b. c #686868",
"n. c DimGray",
"m. c #6A6A6A",
"M. c gray42",
"N. c #6C6C6C",
"B. c #6D6D6D",
"V. c gray43",
"C. c #6F6F6F",
"Z. c gray44",
"A. c #717171",
"S. c #727272",
"D. c #747474",
"F. c gray46",
"G. c #767676",
"H. c #777777",
"J. c gray47",
"K. c #797979",
"L. c gray48",
"P. c #7B7B7B",
"I. c #7A787C",
"U. c gray49",
"Y. c #7E7E7E",
"T. c gray52",
"R. c gray53",
"E. c #8E8E8E",
"W. c gray61",
/* pixels */
"% % % % % % % % % % % % % % % % % % % % % % % % % % % % % % % % % % % % % % % % % % % % % % % % % % % % % % % % % % % % % % % % ",
"% % % % % % % % % % % % % % % % % % % % % % % % % % % % % % % % % % % % % % % % % % % % % % % % % % % % % % % % % % % % % % % % ",
"% % % % % % % % % % % % % % % % % % % % % % % % % % % % % % % % % % % % % % % % % % % % % % % % % % % % % % % % % % % % % % % % ",
"% % % % % % % % % % % % % % % % % % % % % % % % % % % % % % % % % O.#.#.#.#.X.% % % % % % % % % % % % % % % % % % % % % % % % % ",
"% % % % % % % % % % % % % % % % % % % % % % I.> i i i i i i i i i :.=.&.&.-.-.i i : % % % % % % % % % % % % % % % % % % % % % % ",
"% % % % % % % % I.% % % % % % % % % % % % % % m >.>.>.>.>.>.>.>.>.>.x     B >.>.>.b % % % % % % % % % % % % % % % % % I.% % % % ",
"% % % % % % % % % % % % % % % % % % % % % % l _ >.>.>.7.9.9.9.8.>.X.B 1 1 Z o.>.>._ l % % % % % % % % % % % % % % % % % % % % % ",
"% % % % % % % % % % % % % % % % % % % % % % I >.>.>.>.u.s.s.s.p.>.H F r r F P >.>.>.I % % % % % % % % % % % % % % % % % % % % % ",
"% % % % % % % % % % % % % % % % % % % % % Q *.0.Z.u.u.a.s.s.s.p.>.H F Z Z F P >.>.>.*.@.@.@.@.@.@.@.R % % % % % % % % % % % % % ",
"% % % % % % % % % % % % % % % % % % % % % ] ,.r.G.s.s.s.s.s.s.i.>.Y G F F G E >.>.>.>.,.1.1.1.1.1.,.[ w 8 % % % % % % % % % % % ",
"% % % % % % % % % % % % % % % % % % % % % ] 8.s.s.s.s.s.s.s.i.7.>.>.E F F ~ >.>.>.>.>.8.s.s.s.s.s.8.>.>.%.% % % % % % % % % % % ",
"% % % % % % % % % % % % I.% % 7 p d U U U 8.f.s.s.s.s.s.s.p.r.7.2.>. .' ' X.>.>.>.>.4.r.s.s.s.s.s.r.8.5.-.U % % % % % % % % % % ",
"% % % % % % % % % % % % % % % u F H >.>.>.n.C.s.s.s.s.s.s.y.8.8.8.,.>.>.>.>.>.>.>.>.e.s.s.s.s.s.s.s.s.t.>.>.% % % % % % % % % % ",
"% % % % % % % % % % % % % z N Z Z f y.<.>.i.j.s.s.s.s.s.s.a.y.8.8.6.<.>.>.>.>.>.>.>.e.t.9.s.s.s.s.s.s.t.>.>.O.g % % % % % % % % ",
"% % % % % % % % % % % ; ; B H G C v s.2.>.w.a.a.a.s.s.s.s.s.i.9.9.9.2.<.<.<.<.<.<.<.e.w.5.s.s.s.s.s.s.t.,.3.>.b % % % % % % % % ",
"% % % % % % % % % % = F F F o.' H s.s.s.4.>.>.>.<.s.s.s.s.s.s.s.s.s.s.s.s.s.s.s.s.s.s.w.5.s.s.s.s.s.s.t.9.L.>.b % % % % % % % % ",
"% % % % % % % % 6 u a F ) ' $.=.;.s.s.s.4.>.>.>.,.e.a.s.s.s.s.s.s.s.s.s.s.s.s.s.s.s.y.u.k.b.s.s.s.s.i.9.9.L.>.b % % % % % % % % ",
"% % % % % % % % u F F F -.>.>.8.s.s.s.s.4.>.>.>.>.>.a.s.s.s.s.s.s.s.s.s.s.s.s.s.s.s.8.g.L.H.s.s.s.s.w.>.9.L.>.b % % % % % % % % ",
"% % % % % % % % u Y #.#.e.3.9.i.s.s.s.s.u.6.>.>.>.>.5.5.t.s.s.s.s.s.C.c.s.s.s.s.s.s.i.y.k.H.s.s.s.m.k.e.A.L.>.b % % % % % % % % ",
"% % % % % % % & s E >.>.i.5.e.s.s.s.s.s.s.8.>.>.>.>.>.>.w.a.a.s.s.s.D.n.s.s.d.d.s.s.s.w.y.F.d.s.s.V.c.u.K.K.1.V - % % % % % % % ",
"% % % % % % % c F E >.>.>.y.s.s.s.s.s.s.s.8.>.>.>.>.>.>.>.>.4.s.s.s.s.s.s.x.L.L.d.s.s.w.>.8.L.s.s.8.>.6.s.s.L.w.I % % % % % % % ",
"% % % % % % % c Y | >.>.>.0.e.y.s.s.s.s.t.4.>.>.>.>.>.>.>.>.2.e.e.s.s.y.d.b.z.z.n.g.z.s.>.5.Z.s.v.t.0.d.s.s.Z.9.} m % % % % % % ",
"% % % % % % % c ' >.>.>.>.>.>.8.s.s.s.s.4.>.>.>.>.>.>.>.>.>.>.>.>.a.s.8.g.N.F F K.l.C.b.>.2.s.s.F.g.h.S.s.s.s.3.>.( % % % % % % ",
"% % % % % % h A ' >.>.>.>.>.>.8.s.s.s.s.y.5.>.>.>.>.>.>.>.>.>.>.>.t.t.6.7.9.F F K.D.z.0.3.y.s.s.F.g.r.l.h.S.s.y.5.&.! % % % % % ",
"% % % % % % M F ' >.>.>.>.>.>.8.s.s.s.s.s.8.>.>.>.>.>.>.>.>.>.>.>.w.e.5.>.$.F F J.L.f.>.5.s.s.s.F.g.9.s.k.L.s.s.8.>...* % % % % ",
"% % % % % % M o.>.>.>.>.>.>.>.>.3.a.>.>.>.>.>.>.>.>.>.0.e.7.>.>.>.w.e.e.7.O.$ F F &.>.8.s.s.s.s.F.g.9.c.D.>.>.>.e.w.>.$.% % % % ",
"% % % % % % M o.>.>.>.>.>.>.>.>.3.a.>.>.>.>.>.>.>.>.3.7.8.6.4.3.>.8.w.e.7.$.H F F &.e.s.s.s.s.s.B.f.r.j.c.>.>.>.e.t.4.=.K % % % ",
"% % % % % % M o.>.>.>.>.>.>.>.>.3.a.>.>.>.>.>.>.>.>.w.1.>.4.e.w.>.>.0.e.7.>.-.F F &.n.C.s.s.s.s.s.s.s.t.>.>.>.>.e.s.t.>.>.% % % ",
"% % % % % % M o.>.>.>.>.>.q.r.8.<.6.>.>.>.>.>.>.,.8.4.,.4.1.X. .) 7.w.7.1.>.3.v.#.0.h.l.s.p.6.s.s.s.s.t.;.) ) ) :.e.Z.R.>.% %   ",
"% % I.% % % M o.>.>.>.>.>.y.s.e.>.>.>.>.>.>.>.>.,.e.,.>.7.,.F F F q.e.4.>.>.6.L.<.u.s.s.s.i.>.s.s.s.s.t.=.F F F o.9.P.W.>.%   % ",
"% % % % %   M F ' 3.s.s.s.s.s.e.>.>.>.>.>.7.e.e.e.e.,.E F F F F F q.e.4.>.>.>.>.a.s.s.w.>.>.>.s.s.8.>.>.$.    B o.9.P.W.>.      ",
"% %         M F X.0.s.s.t.r.r.8.>.>.3.3.,.7.e.e.e.e.,.E F F S n F <.7.2.>.>.>.>.a.s.u.5.+.+.+.r.a.8.>.;.|   q Z o.9.Z.R.>.      ",
"%   %     % M F -.s.s.s.1.>.>.>.>.,.e.e.2.7.e.e.e.e.,.E F F B # F F &.>.>.>.>.>.a.s.8.X.F F F >.u.8.>.#.C   F F o.9.t.>.>.      ",
"            M F -.s.s.7.,.| ` ` | ,.i.i.3.7.e.a.Z.V.2.#.J e 9 # F F &.>.>.>.<.r.s.B.i.X.C y F >.u.8.>.-.}   F | -.9.t.=.H       ",
"            M F -.s.a.>.>.~ F F E ,.s.s.4.7.e.g.U.L.3.>.P     # F F &.>.>.>.1.s.s.F.g.X.M , F >.u.8.>.>.$.  F &.>.9.t.$.        ",
"            M F -.s.a.>.P 9 . t E ,.s.s.4.>.>.>.,.,.>.>.' x   # F :.>.>.4.e.r.s.K.l.8.>.#.P >.s.s.s.m.B.9.L.>.>.e.s.t.$.        ",
"            M ' 4.s.s.6.Y 5 2 C | 7.s.s.0.6.3.>.>.>.y.2.X.T B f  .:.>.>.3.0.r.p.n.g.w.3.#.Y >.s.s.s.c.n.w.B.6.6.t.M.M.`         ",
"            M 4.s.s.s.s.W 5 x ' 3.s.s.s.s.s.e.>.>.>.F.w.>.>.$.T e.,.>.>.>.2.e.e.H e.s.w.#.Y >.s.s.s.s.s.i.>.s.s.s.T.E.          ",
"            M 4.s.s.s.s.W 5 T $.3.s.s.s.s.s.e.>.>.>.a.q.8.4.;.+.4.>.>.>.>.;.$.4.O.q.p.i.7.$.e.s.s.s.y.w.i.>.s.s.e.z.x.          ",
"            M 4.s.s.s.s.W 5 ' >.3.s.s.s.s.s.e.>.>.>.>.0.e.7.>.>.>.>.>.>.>.$.P >.>.0.i.s.t.2.s.s.s.s.w.6.i.>.s.s.8.>. .          ",
"            M H } ,.,.,.P D o.>.3.s.s.s.s.s.e.>.>.>.>.0.e.e.9.>.>.>.>.{ H G F H :.0.5.9.s.a.s.s.s.s.w.6.i.>.,.,.>.>. .          ",
"            j Z ^ #.#.#./ ^ #.1.9.s.s.s.s.s.e.>.>.>.>.7.9.9.7.>.>.>.&.E M B F F :.7.3.6.u.s.s.s.s.i.8.6.i.>.>.>.>.i.p.          ",
"              x F F F F -.>.>.8.s.s.s.s.s.s.e.>.>.>.>.>.>.>.>.>.>.>.E r   5 F F :.>.>.>.5.s.s.s.s.8.>.6.i.>.>.>.>.Y.E.          ",
"              4 r r t F ) ' $.2.8.9.s.s.s.s.e.>.>.>.>.>.>.>.>.>.>.>.E r   # f F :.>.>.>.5.s.s.s.s.8.>.1.5.' n.n.4.q.s.          ",
"                    X F F F o.>.>.,.s.s.s.s.e.>.>.>.>.>.>.>.>.>.>.>.E r     $ F :.>.>.>.5.s.s.s.s.8.>.>.=.F L.L.8.              ",
"                      + + B H J ~ >.<.<.<.<.,.>.>.>.>.>.>.>.2.w.w.,.E r     $ F :.0.4.>.>.<.<.<.A.f.>.#.H F 3.P 9               ",
"                          k M Z Y $.$.$.$.$.=.>.>.>.>.>.>.>.2.e.e.,.E r     $ F :.0.4.>.>.>.>.>.n.i.-. .H ~ >.x                 ",
"                              r F F F F F F ' >.>.>.>.>.>.>.2.e.e.,.E r     $ F :.0.4.>.>.>.>.>.>.>.X.F Y >.>.x                 ",
"                              < t t t t t M T ' ' ' :.>.s.s.<.5.e.,.E M x x B o.>.c.y.>.>.>.>.>.>.O.W $.d.P P 5                 ",
"                                          x F F F F ;.>.n.n.>.<.e.,.E F F F P >.>.S.g.>.>.>.>.>.>.' F 4.A.                      ",
"                                          + # # < F L &.2.2.>.4.H.1.;.;.;.;.;.>.>.4.1.>.>.>.>.>.>.' x q B                       ",
"                                                + B F o.&.-.>.5.L.t.1.>.4.e.e.e.>.>.>.>.>.:.&.&.&./ k                           ",
"                                                    D F F ' >.5.L.L.w.>.g.L.L.L.<.>.>.>.>.-.F F F F k                           ",
"                                                    t y B T X.1.h.K.M.r.0.h.h.h.,.>.a.y.{ ) y y y y 5     J.                    ",
"                                                        x F W >.>.J.L.g.>.>.>.>.>.>.n.k.F Z                                     ",
"                                                        @ f G E >.7.7.2.>.>.>.>.>./ ` / M $                                     ",
"                                                          0 B F &.&.&.&.&.&.&.&.&.L B B k                                       ",
"                                    O                         # F F F F F F F F F 3                                             ",
"O           O     O O O O O   O O           O       J.        o f f f f f f f f f #                                             ",
"O O   O O O   O O O O O O O O O O O O O O O O             O         O           O O                                     % % %   ",
"O O O O O O O O O O O O O O O O O O O O O O O O O O   O O O O O O                   J.              O                   % %   % ",
"O O O O O O O O O O O O O O O O O O O O O O     O   O   O O   O O O O O   O                 O O O   O               % % % % % % ",
"O O O O O O O O O O O O O O O O O O O O O O O O O O O O O O O O O O O O O O O O O O O O O   O   O O     O O       O % % % % % % ",
"O O O O O O O O O O O O O O O O O O O O O O O O O O O O O O O O O O O O O O O O O O O O   O O O     O O O     O   O % % % % % % "
};
