/* XPM */
static char *result[] = {
/* columns rows colors chars-per-pixel */
"64 64 176 2 ",
"   c #000001",
".  c #030A01",
"X  c #040008",
"o  c #0C0C0C",
"O  c #021201",
"+  c #041C02",
"@  c #081E04",
"#  c #0F100F",
"$  c #0B1C18",
"%  c #131413",
"&  c #191A19",
"*  c #052402",
"=  c #0A2306",
"-  c #0D2608",
";  c #0E2B08",
":  c #0C3406",
">  c #093905",
",  c #13360C",
"<  c #143C0C",
"1  c #1F361C",
"2  c #102420",
"3  c #162E29",
"4  c #00392C",
"5  c #1D3C35",
"6  c #242524",
"7  c #252925",
"8  c #2D2D2D",
"9  c #302F30",
"0  c #353535",
"q  c #373937",
"w  c #3B3B3B",
"e  c #014700",
"r  c #034D00",
"t  c #124309",
"y  c #18420F",
"u  c #164D0C",
"i  c #194C0F",
"p  c #065203",
"a  c #17500C",
"s  c #18520D",
"d  c #1A4510",
"f  c #1C4A12",
"g  c #1E5414",
"h  c #1E5B12",
"j  c #24471E",
"k  c #205416",
"l  c #215D15",
"z  c #215518",
"x  c #235A18",
"c  c #036600",
"v  c #0B6403",
"b  c #086C00",
"n  c #017400",
"m  c #017C00",
"M  c #14710B",
"N  c #1D6014",
"B  c #236216",
"V  c #27621A",
"C  c #29661C",
"Z  c #276819",
"A  c #2B6C1E",
"S  c #2C721E",
"D  c #004B3B",
"F  c #00523F",
"G  c #295522",
"H  c #364A34",
"J  c #3F5F3B",
"K  c #2E6424",
"L  c #306D25",
"P  c #2F7321",
"I  c #307722",
"U  c #337D24",
"Y  c #357B28",
"T  c #397D2D",
"R  c #3F6D3F",
"E  c #40693F",
"W  c #004742",
"Q  c #264B43",
"!  c #305C53",
"~  c #00614F",
"^  c #006556",
"/  c #00645A",
"(  c #006A5C",
")  c #007366",
"_  c #386C60",
"`  c #434343",
"'  c #424D41",
"]  c #4D4D4D",
"[  c #465644",
"{  c #535353",
"}  c #5D5D5D",
"|  c #5A7D59",
" . c #456E65",
".. c #626262",
"X. c #6D6D6D",
"o. c #657164",
"O. c #687668",
"+. c #79787A",
"@. c #058401",
"#. c #0C8502",
"$. c #028F00",
"%. c #178C0C",
"&. c #029100",
"*. c #019C00",
"=. c #0C9A00",
"-. c #129C0A",
";. c #288B1B",
":. c #259318",
">. c #2A991D",
",. c #02A000",
"<. c #00AF00",
"1. c #16AD0D",
"2. c #02B200",
"3. c #0EB200",
"4. c #02BF00",
"5. c #19B214",
"6. c #1CBC13",
"7. c #2BAB1C",
"8. c #24BD17",
"9. c #27B41B",
"0. c #2F8D21",
"q. c #338224",
"w. c #2EA021",
"e. c #36A435",
"r. c #01C600",
"t. c #0CC506",
"y. c #01CA00",
"u. c #0BCD05",
"i. c #0CD402",
"p. c #00D900",
"a. c #09D900",
"s. c #19D40F",
"d. c #1DCE14",
"f. c #1DD313",
"g. c #1ADA10",
"h. c #26C41A",
"j. c #02E300",
"k. c #06EC02",
"l. c #01F400",
"z. c #08F400",
"x. c #00FE00",
"c. c #08F803",
"v. c #008474",
"b. c #008C76",
"n. c #00917D",
"m. c #00987D",
"M. c #5A8A5A",
"N. c #4DAE4C",
"B. c #59B358",
"V. c #478678",
"C. c #48887A",
"Z. c #518076",
"A. c #55877C",
"S. c #688667",
"D. c #009682",
"F. c #009C84",
"G. c #00A78D",
"H. c #00AD97",
"J. c #00AD99",
"K. c #00B799",
"L. c #00BFA1",
"P. c #659E91",
"I. c #57A393",
"U. c #58A594",
"Y. c #75B7A8",
"T. c #79BDAD",
"R. c #00CAA6",
"E. c #00DBB2",
"W. c #7BC2B1",
"Q. c #00EDC3",
"!. c #00FECE",
"~. c #00FED1",
"^. c #82D1BF",
"/. c #8DDBC9",
"(. c #8EE0CD",
"). c #93E5D2",
/* pixels */
"X X X X X X X X X X X X X X X X X X X X X X X X X X X                       X X X X X X X X X X X X X X X X X X X X X X X X X X ",
"X X X X X X X X X X X X X X X X X X X X X X X X X X                         X X X X X X X X X X X X X X X X X X X X X X X X X X ",
"X X X X X X X X X X X X X X X X X X X X X X X X X X X   # 6 { X.....6 &     X X X X X X X X X X X X X X X X X X X X X X X X X X ",
"X X X X X X X X X X X X X X X X X X X X X X X X X X X   & 7 } X.X.X.6 &   X X X X X X X X X X X X X X X X X X X X X X X X X X X ",
"X X X X X X X X X X X X X X X X X X X X X X +.X X X X   M 5.M.X.X.O.5.%.    X X X X X X X X X X X X X X X X X X X X X X X X X X ",
"X X X X X X X X +.X X X X X X X X X X X X X X X X X     *.x.B.X.X.S.x.y.  X X X X X X X X X X X X X X X X X X X X X X +.X X X X ",
"X X X X X X X X X X X X X X X X X X X X X X X X X X X   ,.x.B.X.X.S.x.y.    X X X X X X X X X X X X X X X X X X X X X X X X X X ",
"X X X X X X X X X X X X X X X X X X X X X X X X X X X   ,.x.B.X.X.S.x.y.  X X X X X X X X X X X X X X X X X X X X X X X X X X X ",
"X X X X X X X X X X X X X X X X X X X X X X X X X X     ,.x.B.X.X.S.x.y.    X X X X X X X X X X X X X X X X X X X X X X X X X X ",
"X X X X X X X X X X X X X X X X X X X X X X X X X       ,.x.B.X.X.S.x.y.      X X X X X X X X X X X X X X X X X X X X X X X X X ",
"X X X X X X X X X X X X X X X X X X X X X X X X X       ,.x.B.X.X.S.x.y.        X X X X X X X X X X X X X X X X X X X X X X X X ",
"X X X X X X X X X X X X +.X X X X X X X X X X X X   = k 1.x.N.} } | x.s.z ,   X X X X X X X X X X X X X X X X X X X X X X X X X ",
"X X X X X X X X X X X X X X X X X X X X X X X X X   , Y 8.x.e.` ` R x.g.U g   X X X X X X X X X X X X X X X X X X X X X X X X X ",
"X X X X X X X X X X X X X X X X X X X X X X X X X   < 0.8.z.e.` ` E c.f.0.N     X X X X X X X X X X X X X X X X X X X X X X X X ",
"X X X X X X X X X X X X X X X X X X         X       n x.d.q.J ` ` ' q.9.x.<.      X X         X X X X X X X X X X X X X X X X X ",
"X X X X X X X X X X X X X X X X X X         X       n x.f.U J ` ` ' q.9.x.<.      X         X X X X X X X X X X X X X X X X X X ",
"X X X X X X X X X X X X X X X X X X         X       n x.t.d 1 6 6 6 d -.x.<.      X         X X X X X X X X X X X X X X X X X X ",
"X X X X X X X X X X X X X X X X X X         X       n x.r.            &.x.<.      X X       X X X X X X X X X X X X X X X X X X ",
"X X X X X X X X X X X X X X X X X X         X       n x.4.   .A.A.Z.  &.x.<.      X       X   X X X X X X X X X X X X X X X X X ",
"X X X X X X X X X X X X X X X X X X           X X   n x.4.  T.).)./.  &.x.<.  X X           X X X X X X X X X X X X X X X X X X ",
"X X X X X X X X X X X X X X X X X X           X X   n x.4.  T.).)./.  &.x.<.    X             X X X X X X +.X X X X X X X X X X ",
"X X X X X X X X X X X X X X X X       o 6 &         n x.4.  T.).)./.  &.x.2.        o 7 &       X X X X X X X X X X X X X X X X ",
"X X X X X X X X X X X X X X X X       % 6 &         n x.4.  T.).)./.  &.x.<.        # 7 &       X X X X X X X X X X X X X X X X ",
"X X X X X X X X X X X X X X X X     & & 6 &     . x :.x.4.  T.).)./.  &.x.6.V ;     # 6 6 & o   X X X X X X X X X X X X X X X X ",
"X X X X X X X X X X X X X X X X X   7 6 6 &     . I w.x.4.  T.).)./.  &.x.h.U ,     o 6 6 6 #   X X X X X X X X X X X X X X X X ",
"X X X X X X X X X X X X X X X X 9   6 6 6 &   8 q Y w.x.r.  T.).(./.  &.x.h.U H 0   % 7 6 6 %     X X X X X X X X X X X X X X X ",
"X X X X X X X X X X X X X X       X 6 6 6 &   } X.T w.x.4.  T.).)./.  &.x.h.U o.X.  # 6 6 6 #       X X X X X X X X X X X X X X ",
"X X X X X X X X X X X X X X       . 7 6 7 &   } X.T w.x.4.  T.).)./.  &.x.h.U o.X.  # 6 6 7 %       X X X X X X X X X X X X X X ",
"X X X X X X X X   X X     X     A I 7 6 6 &   } X.T w.x.r.  T.).)./.  &.x.h.U o.X.  o 7 6 6 K P @   X     X X X X X X     X X   ",
"X X +.X X X X X X               I Y 7 6 6 &   } X.T w.x.4.  T.).)./.  &.x.h.U o.X.  o 7 6 7 L q.@           X X X X X X X X   X ",
"X X X X X   X   X         X     S U K G & w { ] ] Y w.x.4.  T.).)./.  &.x.h.U [ ] { ` & j K I Y @   X       X X X X X           ",
"X X         X   X               I Y U A   ] X.w . I w.x.4.  T.).)./.  &.x.h.U < o X...  x Y U U @   X       X   X               ",
"X   X     X         X       @ , S U Y A   ] X.w . U w.x.4.  T.).)./.  &.x.h.U , . X...  x U U U < ;                             ",
"                            C q.U U Y P   ] X.w . I w.x.4.  T.).(./.  &.x.h.U , o X.}   x U q.U Y I             +.              ",
"                    X       V U U q.U P   ] X.w . I w.x.4.  T.).)./.  &.x.h.q., o X...  x U q.U U P           +.  +.            ",
"                        y I Z h l l U A   ] X.w . U w.x.4.  T.).)./.  &.x.h.U , o X.}   x U V l h l I x         +.              ",
"                        f U Z s a s q.A   ] X.w . U 7.x.r.  T.).)./.  &.x.h.U , o X.}   x U B s s l q.V                         ",
"                        f U Z s a s U L   { X.w   U q.<.#.  T.).)./.  v 2.>.q., o X.}   x U B s a h U V                         ",
"                +.      f U Z a s s U A   ] X.w . I P       T.).)./.      C U , o X...  x U B s a h U V                         ",
"                  @ =   i U Z a s s I C . ] X.w . U P   $ 3 T.).(./.3 2   x q., o X.} X k I B s s l U V   + =                   ",
"                  I I   f q.Z a s a   # 7 { X.w . U P   _ U.^.).).(.U.C.  V U , o X.} 6 &   t s u l U V   C q.;                 ",
"                  P I   f U A a s a . # 6 { X.w   U P   _ I.^.).).(.I.C.  C U , o X...6 &   t s a l U C   C U ;                 ",
"              x A B h   f U A a s a . # 6 { X.w . U S   _ I.^.).).(.I.C.  x q., o X...7 &   t s a l U V   i N A C               ",
"              V U h u   f q.Z a s a   # 6 { X.w . I I   _ I.^.).).(.I.V.  C U , o X...6 &   t s a h U V   t a I I               ",
"          , g V A s s   f U Z a t <   # 6 ` { 8 . I P   _ I.^.).).(.I.V.  x U , X { ] 6 &   : t a h U V   t s A C g y           ",
"          k U V s s i   f q.Z a *     o 7 &     . U P   _ I.^.).).(.I.V.  C U <     # 7 &       a l U V   t s s h U C           ",
"        @ h U B s s u   f U Z a *   & & 6 &   % & S S   _ I.^.).).(.I.V.  x U 1 &   o 6 6 & X   u h U V   t s s h I C @ O       ",
"      , U A s s s s u   i U A a * o X...6 &   } X.&     _ I.^.).).(.I.V.    . ..X.  # 7 ] X.w   a l U C   t s s s s B U k       ",
"      < q.A s s s s u   f U Z s * o X...6 &   } X.%     _ U.^.).)./.U.V.      ..X.  o 7 { X.w   a h U V   t s s s s B U k       ",
"    C V B h s s s s u   f U Z s *   H w # o   ` { } {   5 ! W.).)./.! Q   ` } { {   X % 8 w 6   a h U V   t s s s s h B V C ;   ",
"  . U I s s s s s s u   f U Z s *             w ` X...      T.).)./.      { X.] `               u l U V   t s s s s s s A q.<   ",
"    U I s s s s s s u   < C h t + . $.$.$.c   w ` } } w 8   P.W.W.Y.  6 w { } ] `   e $.&.$.r   t i A k   t s s s s s s A U ,   ",
"  . U P s s s s s s u             * x.x.x.2.  w ` 7 w X.{             ` X.] 6 ` `   m x.x.x.@.            t s s s s s s A U ,   ",
"    U I s s s s s a u       O + . * x.x.x.2.  q ` 6 w X.{ o         o H X.] 6 w `   m x.x.x.@.. + +       t a s s s s s A q.,   ",
"  . I I s s s s s @ O       3.l.>.U x.x.x.2.  w ` 7 6 9 ] X.w     6 X.} 9 8 7 w `   m x.x.x.7.Y k.i.      . O u s s s s A U ,   ",
"  . U I s s s s a +         4.x.7.q.c.x.x.2.  q ` 7 6 6 ] X.`     & X.} 6 6 7 w `   m x.x.x.7.U z.a.          a s s s s S U <   ",
"  O f.f.u.u.u.#.: . > r.r.r.j.x.w.q.x.x.x.2.  w ` 7 6 7 ] X.`     6 X.} 6 6 6 w `   m x.x.x.7.q.c.l.r.r.r.m   : p u.u.u.s.f.v   ",
"  + l.x.x.x.x.*.    e x.x.x.x.x.>.0.x.x.x.2.  q ` 7 6 7 ] X.`     6 X.} 6 7 7 w `   m x.x.x.7.q.c.x.x.x.x.&.    r x.x.x.x.x.n   ",
"  O i.p.p.p.p.#.  , a a.p.p.p.p.;.S a.p.a.=.  0 w 6 6 & ` } w     & ..{ & 6 6 0 w   b a.p.p.:.S i.p.p.p.p.%.< . e a.p.p.p.a.c   ",
"                  I I                                                                                     C q.;                 ",
"                  I I                                                                                     V q.;                 ",
"      ^ Q.Q.Q.n.  ; -   b.Q.G.                R.Q.Q.Q.Q.K.      X     b.Q.Q.Q.Q.Q.                ~ Q.K.  = ; . D Q.Q.Q.F.      ",
"      ( !.!.!.D.        m.!.G.                E.!.!.!.!.L.        X   n.!.!.!.!.!.                ^ ~.R.        F !.!.!.G.      ",
"      W H.H.H.(         ( H.)         X       D.H.H.J.J.v.  X X X     / H.H.J.H.H.                D J.b.        4 J.J.J.)       "
};
