/* XPM */
static char *result[] = {
/* columns rows colors chars-per-pixel */
"64 64 85 1 ",
"  c #2F363E",
". c #2F393E",
"X c #32373E",
"o c #33393E",
"O c #2F3A43",
"+ c #333741",
"@ c #333A43",
"# c #383D43",
"$ c #353D49",
"% c #393F4A",
"& c #384047",
"* c #35404C",
"= c #3C434D",
"- c #3D4451",
"; c #40474F",
": c #404653",
"> c #464B55",
", c #484D57",
"< c #464C5A",
"1 c #494E5B",
"2 c #47515C",
"3 c #49525E",
"4 c #50555F",
"5 c #475361",
"6 c #4B5463",
"7 c #4E5866",
"8 c #4E5669",
"9 c #4E5969",
"0 c #525967",
"q c #525A6B",
"w c #595F6F",
"e c #565D71",
"r c #585F70",
"t c #57606B",
"y c #58606D",
"u c #5A6173",
"i c #5D6479",
"p c #636A7C",
"a c #666F82",
"s c #696E84",
"d c #677082",
"f c #6A7285",
"g c #6D758C",
"h c #6E788F",
"j c #70778D",
"k c #71798E",
"l c #6F7690",
"z c #6F7891",
"x c #707791",
"c c #737A93",
"v c #787E96",
"b c #767D99",
"n c #787F99",
"m c #788096",
"M c #778099",
"N c #7B819A",
"B c #82879D",
"V c #838A9F",
"C c #858CA4",
"Z c #888FA5",
"A c #868EA9",
"S c #888FAA",
"D c #8991A6",
"F c #8790AA",
"G c #8B92AE",
"H c #9095AD",
"J c #898FB0",
"K c #8D94B1",
"L c #8F99B3",
"P c #9097B2",
"I c #9299B4",
"U c #9297B9",
"Y c #A8AEBE",
"T c #A7ADC3",
"R c #A8AEC4",
"E c #ACB2C5",
"W c #A7B0CA",
"Q c #ADB3CC",
"! c #B1B6CE",
"~ c #B2B9CE",
"^ c #AEAFD0",
"/ c #AFB5D0",
"( c #B1B6D1",
") c #B4BAD2",
"_ c #B6BBD9",
/* pixels */
"__)_)_)__)_)___)))))_~1o@X#@o.@@@O@@.<W___))_)__)__)___)))_)_)_)",
"))~)))))))))~)))~))_~E2=>,--Xoo@@oo@>0E~_~~)))_)))~)))~))))~~)))",
"~)~)))~)~)))))~~~~//LLhgRRHV=XXoXoo>EE~~~~~~~)~)~~))~~~))))~~~IG",
"~!)~(~((~!~~~!~)~~/QLFccQ!ID6>$XX@:0Q))~_)))~)~~Q~Q))~!)Q)Q)Q~PL",
"KPKKKKKKKKKKPPGPLLLLKKGGnN((!Y,@o>E~))IP)/_~~QNcvkcN!~)~IKKPKIQ/",
"GGGKKKKGGKKGGGGGJJGJKGFGcbWQ)R>@@,W)QQLIQQQQ(QbccvvNQ)_QIGKGKI//",
"KGGGGGKGKGGGKGGKGKGJKGKSSAnbjk&@+>!~II~WNvcvFIGG!QQQIPIKKKKGGGLK",
"GGGGGGGGGGGGGGGGGGGGGKGGKGcxxj:=o>EQILQ~nxvvGPGKQ)/QIGGGKGGKGKGK",
"KGKKKGKKKKGKKKGKKGGKGKGKGGGAKSSC=>Q)Q!IIQ/(Q)/KGGIPPGGGKGGGGKGGG",
"GGGGGGGGSGGGGGGGKKSKKGKKGGGKKSSC=,W~)!HHQ)/)/QIKGKGKGPGGKGKGKKKG",
"KKKKGGGKKKKKKPKGGSKGGGGSKAPKJS<-#=GL~~PGIGIPKPGKKGGGGGGGGGKGGPGG",
"KGGGKKGKKKKGGGGKGKGGSGGKKGSAIC<*@=FIQ(PSKKGGGKGGKKKKGGKGKGGKGGKG",
"GKKKGGGKKGGKGGGKGKGKczGKGGccAGfd%=AP(_HGKKKGKGGKKKKGKGGGGGKGGGGK",
"KGKKSGPPJKKGGKGGGKSAmmGFGFcnFGcg=-GL!(PGGKGGGKGGGKKKKKGKPKGGGKGG",
"GJKScnQ/LLGGGKKGGFcMEQ~QvcQQIKFF-=AK!)GGKGGGKGKKGKGGGGGGGGGKGKKG",
"GKKPnNW)GGGKGGGKFFzbQ/~QvvQ!FFFC==GIWQPFIGKKGGGGKGGKKGKKGGGKGGKG",
"KJGL//KKKFLGKGGGhcFGMzccgc(Qiqq9#=SJIHHGKSKGKGGKGGGKGKGGKGKGGGPG",
"LGGLQQPKGGGGKKGFccFFzgkhjj!Ew663#-JKGGGGKKKGGKGGGKGGGKKGKGGGKGGG",
"JGGGPPSKKKKKKFczGCzzgMQE11!~e663O-SKPHGKJGGKGKKGGKKGGGKGGGGKKGKG",
"GGGGKKSKGKJSKGzzCFhfgz~E>>!Qe566@-SKSKKGGKGKGGGGGGGKKGGKGKKGGGKG",
"GKGKKGGGKKccSSxgzg99fh~E,>!Eu56<@=SKPJGKGGGKGGKGKGGKGGGGGGKKKGPG",
"KKKKGGGSSKlcSSxlffuumm/~1,TYy665@-AKGGPSKKKKKKKKKKKKGPKGGGJSGGGG",
"GGKSPSxxlcgfccgfqyY~Q~_Q03er6666@-FGJKKKKSGGGGKGKGGGGKKKGGKUKGGG",
"HSKKSGcvfllcllxgupQ)/Q~Tw6666665#=VSPJKKKKKKKJKKKKGGFHJKHGKKJPGH",
"KPxjccEEvlGGFGxcE!~~IDir01866663@@=1KKKKKGKKKJKKJSGGGGGGPKKGGGKJ",
"SSkjjc!)blAGFScn~~Q!HZ8666566663@oo-CFGAFSFFDSDFPPGPDGGFDDKKKSFA",
"qeDFxc!(KAcxckDGQ!mkqq0666365655&@X@qq98qqq000wuSKKAnxgjeeKSKD1-",
"9ePKnN(WHCgggxSKQEkf665566666633@.o&136566666650CSZCxgff8qCCFV:@",
"GG///QIFu09676qqyw696666666666$@@X+@#$<666656667800q769632qqqq53",
"ZGE~ETGCq6<5666663562365616551$@+@@+#$1<536365656336336232633533",
"=->,>>-=#@#@@@@@@@@O#@$@#$@@##+@@OO@@@$@&@@O$$33$@##@$@@$@#@$@##",
"&o@@-=>2=:>>>,>>>,<,>>>>>>>>>>>>>>>>>>>>>>>>><qw,>>>>>>,>>#++@@@",
"52#=VJQQPSQ!QQQQ^!^^Q!Q!Q!QQQQQQQQQQQ!Q!Q!QE!Q(^^QQQ!^!^!Y>++++@",
"52#:ZP(!II()()_)))~)()()((~)))!))!()))(_)))!))))!((((_E!(E8:XX@+",
"$@10SUQ~((!~)~)~~)~~!~)(())))~ILGLGI!)~()_)Q~!IPKPPGPS46KKSB;X++",
"@@8rHI!!!_!()))/~~((!))()))!)QLGKKGPW!!!Q~)~)!PGGKGGHS66HHJS1=@@",
"o=SG!QpiSKPPLKKLPPKPPPGPHKPPGLKGKKJPvvccvvQ~)(PKGGGGGKEQ~QUGZV:#",
"o:GI!QpuDPKSGGFKHPSSGGSKSHSSAGGGGKKJcxjccNQ/(QPGGGKGGP!(EQPPKS:+",
"@>/QIIRQGGPJGKGGJSclxxxlxlxjzchzGGPSSAHA(/IKKIGGPKGGGGPG40QQPZ:X",
"@>W)IPQQPPJSGGGGJSbxxgxgggjgggfhGGSPSKGHQ/KGGGKGGGKPGPKG17W/PZ>%",
"o>Q)!(PIKJKKKKKKKKSHSGjghflgfggzAKGLFJGLLLGGKGGGKKKK~!HFDDKPKSlf",
"@>Q))(GKGGKJGGGGSKSKJSvcmzcvvblcGKGKKKKFFKKKKKKKGKKKQWIKGKGAKKll",
"o>Q~()KGJKGKKKKKKKKKKK!QQ))Q/WHP(QKGJFKKGKGGGGGGKKKGmvGScgclSGlg",
"o>E/((PGGGJKGGGGKJKKKIQ()/)~)/PKQ/KGLKFFKGGKGKGGAAKGccFFclkvFCzl",
"X;SPPPSSKKKGGGGKKKGGKGIGLLKGKLSKKIGKGJKKGGGGGKKGccSKGAeqglAScxlg",
"+=SJGPPSKGGGGKGGGGGKKGGGFKGGKJKKGGFKJLKJGGGGGGSGlcSSSCq7flCCcgll",
"@=SKGJJSKGGGKKKGGGKKGGGKKGGGKJKKKKGKJKGKGGKGzcKKzglleefsq88egggl",
"@=SGHKKPSFGGGKKKGKGKGGPGGKKKFGPPFGGLGKFKFGKGzcJSggff8efgq86qsggl",
"O=GGKJSScxxxSKKGFLGKKKGGKGKGKP((IGQQPGGGccGGGScg9699dggfhdfggggl",
"o=SGSJGCxxgjSSSKGKKGGFGKKGGKGP((IP~~IKGGccZFGAcg72eukcccghgkghgf",
".-SSxxllglxgxbSLKFKGKGGGJKKKSP/_(!~((QIGKAccSGGA0tE~QQ)Qczggggq8",
"o-JSgllgxgggllSSKLFKKKGGGGGKKP(_!)!((/KSPSccZFKAquTQ)(QTcglhfa85",
".-ASjglglgggggxbQQGKKKGKGKKGKJPKPGHPKGxcGGGCcclzfgcvcccvjjgsq666",
"o=CAggllgggggjsjWQIPPIDGFGGFGGKSGPGSKKxcAFSGllggllggxxgxggjaq666",
"o#-<gxgglgjggf-:xnQ((/IFMhgzzzzcSGccAGSAxlxjglgggggggxggjf886666",
"@ @%sxgllggggg--gcQ(!^GGhgzggggzSSlxCGKSxgxglfllggghgglfff866566",
"#@o=sglxlllglggfgbKG63DFzzlghggglggccllljjgfqqgggggglsq806666665",
"+o@%agsfssffgggfflSC,3DClslggggggghgfggggfgfq8ffgggggs8366662363",
"@X@X%%&*%%=*6088666eAGllq8gggkgxgfgfq888q686536860066866336503*&",
"+X+++#XX+++@1265332qCCff68dflllffgfd96333365367651335665666322@@",
"@@@@@@@@@@@@##$O###@-:=%$$%-ff96896053%#@#@*5863666656656665&@O@",
"@XX++oX@X+XX++@@o++@XX#X#++%as6633323,@+@+@$,136533566366332&@#@",
"XXo@o@o+Xo+X++XXXX++X+X@+X@@==$#@@@@##@++#@X##@@@##@@@###@@$Xo@X",
"@@@@OOO@O@@O#@#@+@@O#@O@@@O@@@@@@@@@+@@@@@@O@O@O@@+@O@OOO@@@@@@@"
};
